<svg xmlns="http://www.w3.org/2000/svg" xmlns:xlink="http://www.w3.org/1999/xlink" width="1366" zoomAndPan="magnify" viewBox="0 0 1024.5 576" height="768" preserveAspectRatio="xMidYMid meet" version="1.0"><defs><clipPath id="0ca7065932"><path d="M 0 0.140625 L 1024 0.140625 L 1024 575.859375 L 0 575.859375 Z M 0 0.140625 " clip-rule="nonzero"/></clipPath><clipPath id="9b5a7ae1d6"><path d="M 406.066406 278.84375 L 549.316406 278.84375 L 549.316406 389.09375 L 406.066406 389.09375 Z M 406.066406 278.84375 " clip-rule="nonzero"/></clipPath><clipPath id="7d645a3cc9"><path d="M 412.035156 144.710938 L 543.285156 144.710938 L 543.285156 280.460938 L 412.035156 280.460938 Z M 412.035156 144.710938 " clip-rule="nonzero"/></clipPath><clipPath id="b4698e357b"><path d="M 385 204 L 437 204 L 437 254 L 385 254 Z M 385 204 " clip-rule="nonzero"/></clipPath><clipPath id="43dfa1d93f"><path d="M 368.460938 201.480469 L 413.890625 178.308594 L 443.878906 237.101562 L 398.449219 260.277344 Z M 368.460938 201.480469 " clip-rule="nonzero"/></clipPath><clipPath id="81e3727da8"><path d="M 368.460938 201.480469 L 413.890625 178.308594 L 443.878906 237.101562 L 398.449219 260.277344 Z M 368.460938 201.480469 " clip-rule="nonzero"/></clipPath><clipPath id="db31972ba8"><path d="M 386 183 L 409 183 L 409 207 L 386 207 Z M 386 183 " clip-rule="nonzero"/></clipPath><clipPath id="efb441ba90"><path d="M 368.460938 201.480469 L 413.890625 178.308594 L 443.878906 237.101562 L 398.449219 260.277344 Z M 368.460938 201.480469 " clip-rule="nonzero"/></clipPath><clipPath id="ca3456d8ae"><path d="M 368.460938 201.480469 L 413.890625 178.308594 L 443.878906 237.101562 L 398.449219 260.277344 Z M 368.460938 201.480469 " clip-rule="nonzero"/></clipPath><clipPath id="82ab33f383"><path d="M 524 209 L 576 209 L 576 260 L 524 260 Z M 524 209 " clip-rule="nonzero"/></clipPath><clipPath id="7f7a54bc30"><path d="M 546.5 184.316406 L 592.445312 206.449219 L 563.800781 265.910156 L 517.855469 243.773438 Z M 546.5 184.316406 " clip-rule="nonzero"/></clipPath><clipPath id="613a34b6c5"><path d="M 592.222656 206.34375 L 546.277344 184.207031 L 517.632812 243.667969 L 563.578125 265.804688 Z M 592.222656 206.34375 " clip-rule="nonzero"/></clipPath><clipPath id="6e59440f9f"><path d="M 551 188 L 574 188 L 574 212 L 551 212 Z M 551 188 " clip-rule="nonzero"/></clipPath><clipPath id="a8b82a18e1"><path d="M 546.5 184.316406 L 592.445312 206.449219 L 563.800781 265.910156 L 517.855469 243.773438 Z M 546.5 184.316406 " clip-rule="nonzero"/></clipPath><clipPath id="a35329f05e"><path d="M 592.222656 206.34375 L 546.277344 184.207031 L 517.632812 243.667969 L 563.578125 265.804688 Z M 592.222656 206.34375 " clip-rule="nonzero"/></clipPath></defs><g clip-path="url(#0ca7065932)"><path fill="#ffffff" d="M 0 0.140625 L 1024.5 0.140625 L 1024.5 583.640625 L 0 583.640625 Z M 0 0.140625 " fill-opacity="1" fill-rule="nonzero"/><path fill="#ffffff" d="M 0 0.140625 L 1024.5 0.140625 L 1024.5 576.140625 L 0 576.140625 Z M 0 0.140625 " fill-opacity="1" fill-rule="nonzero"/><path fill="#ffffff" d="M 0 0.140625 L 1024.5 0.140625 L 1024.5 576.140625 L 0 576.140625 Z M 0 0.140625 " fill-opacity="1" fill-rule="nonzero"/></g><g clip-path="url(#9b5a7ae1d6)"><path fill="#fff8c9" d="M 549.277344 292.566406 L 549.277344 300.996094 C 549.277344 301.671875 549.226562 302.347656 549.121094 303.015625 C 549.011719 303.683594 548.851562 304.339844 548.636719 304.980469 C 548.421875 305.625 548.160156 306.246094 547.84375 306.847656 C 547.527344 307.445312 547.167969 308.015625 546.757812 308.554688 C 546.351562 309.097656 545.902344 309.601562 545.410156 310.066406 C 544.921875 310.535156 544.398438 310.960938 543.839844 311.34375 C 543.277344 311.722656 542.691406 312.058594 542.078125 312.34375 C 541.464844 312.628906 540.832031 312.863281 540.179688 313.046875 C 539.039062 313.464844 537.859375 313.660156 536.644531 313.636719 L 418.738281 313.636719 C 417.523438 313.660156 416.34375 313.464844 415.203125 313.046875 C 414.550781 312.863281 413.917969 312.628906 413.304688 312.34375 C 412.691406 312.058594 412.105469 311.722656 411.546875 311.34375 C 410.988281 310.960938 410.460938 310.535156 409.972656 310.066406 C 409.480469 309.601562 409.03125 309.097656 408.625 308.554688 C 408.21875 308.015625 407.855469 307.445312 407.539062 306.847656 C 407.226562 306.246094 406.960938 305.625 406.746094 304.980469 C 406.53125 304.339844 406.371094 303.683594 406.265625 303.015625 C 406.15625 302.347656 406.105469 301.671875 406.105469 300.996094 L 406.105469 292.566406 C 406.105469 291.738281 406.1875 290.914062 406.351562 290.101562 C 406.511719 289.285156 406.75 288.496094 407.070312 287.730469 C 407.386719 286.960938 407.773438 286.234375 408.234375 285.542969 C 408.695312 284.851562 409.21875 284.214844 409.808594 283.625 C 410.394531 283.039062 411.03125 282.515625 411.722656 282.054688 C 412.410156 281.59375 413.140625 281.203125 413.90625 280.886719 C 414.671875 280.570312 415.460938 280.328125 416.273438 280.167969 C 417.089844 280.003906 417.910156 279.925781 418.738281 279.925781 L 473.480469 279.925781 C 471.464844 279.785156 469.457031 279.558594 467.464844 279.242188 C 465.46875 278.921875 463.488281 278.515625 461.53125 278.019531 C 459.570312 277.523438 457.636719 276.941406 455.730469 276.269531 C 453.824219 275.597656 451.953125 274.84375 450.113281 274.003906 C 448.273438 273.167969 446.476562 272.246094 444.722656 271.246094 C 442.964844 270.246094 441.257812 269.167969 439.597656 268.011719 C 437.9375 266.859375 436.335938 265.632812 434.785156 264.332031 C 433.238281 263.035156 431.75 261.667969 430.324219 260.234375 C 428.898438 258.800781 427.539062 257.308594 426.246094 255.75 C 424.953125 254.195312 423.734375 252.585938 422.589844 250.921875 C 421.441406 249.253906 420.371094 247.542969 419.378906 245.78125 C 418.386719 244.019531 417.472656 242.214844 416.644531 240.371094 C 415.8125 238.527344 415.066406 236.652344 414.402344 234.742188 C 413.742188 232.828125 413.167969 230.894531 412.679688 228.929688 C 412.191406 226.96875 411.792969 224.988281 411.480469 222.988281 C 411.171875 220.988281 410.953125 218.980469 410.824219 216.960938 C 410.804688 216.675781 410.816406 216.390625 410.859375 216.105469 C 410.902344 215.820312 410.96875 215.542969 411.066406 215.273438 C 411.167969 215 411.289062 214.742188 411.441406 214.5 C 411.59375 214.253906 411.765625 214.027344 411.964844 213.816406 C 412.160156 213.609375 412.378906 213.421875 412.613281 213.257812 C 412.847656 213.089844 413.097656 212.953125 413.363281 212.839844 C 413.625 212.726562 413.898438 212.640625 414.179688 212.582031 C 414.460938 212.523438 414.746094 212.496094 415.035156 212.496094 C 418.003906 212.511719 420.957031 212.722656 423.898438 213.132812 C 426.839844 213.539062 429.738281 214.140625 432.601562 214.929688 C 435.460938 215.722656 438.257812 216.699219 440.992188 217.859375 C 443.722656 219.019531 446.367188 220.355469 448.925781 221.867188 C 451.480469 223.378906 453.925781 225.050781 456.261719 226.886719 C 458.59375 228.722656 460.800781 230.703125 462.871094 232.828125 C 464.945312 234.957031 466.871094 237.207031 468.648438 239.589844 C 470.421875 241.972656 472.035156 244.457031 473.480469 247.050781 L 473.480469 225.136719 C 473.480469 224.863281 473.507812 224.585938 473.5625 224.316406 C 473.617188 224.042969 473.695312 223.78125 473.800781 223.527344 C 473.90625 223.269531 474.035156 223.027344 474.191406 222.796875 C 474.34375 222.566406 474.519531 222.355469 474.714844 222.160156 C 474.910156 221.960938 475.121094 221.789062 475.351562 221.632812 C 475.582031 221.480469 475.824219 221.351562 476.082031 221.246094 C 476.335938 221.140625 476.597656 221.058594 476.871094 221.003906 C 477.140625 220.949219 477.414062 220.925781 477.691406 220.925781 C 477.96875 220.925781 478.242188 220.949219 478.511719 221.003906 C 478.785156 221.058594 479.046875 221.140625 479.304688 221.246094 C 479.558594 221.351562 479.800781 221.480469 480.03125 221.632812 C 480.261719 221.789062 480.472656 221.960938 480.667969 222.160156 C 480.863281 222.355469 481.039062 222.566406 481.191406 222.796875 C 481.347656 223.027344 481.476562 223.269531 481.582031 223.527344 C 481.6875 223.78125 481.769531 224.042969 481.820312 224.316406 C 481.875 224.585938 481.902344 224.863281 481.902344 225.136719 L 481.902344 246.96875 C 483.351562 244.378906 484.964844 241.894531 486.742188 239.515625 C 488.523438 237.140625 490.449219 234.890625 492.523438 232.769531 C 494.597656 230.648438 496.800781 228.671875 499.136719 226.839844 C 501.472656 225.007812 503.917969 223.339844 506.472656 221.832031 C 509.03125 220.324219 511.675781 218.992188 514.40625 217.835938 C 517.136719 216.675781 519.933594 215.703125 522.792969 214.914062 C 525.652344 214.125 528.550781 213.53125 531.492188 213.125 C 534.429688 212.71875 537.382812 212.511719 540.347656 212.496094 C 540.636719 212.496094 540.921875 212.523438 541.203125 212.582031 C 541.484375 212.640625 541.757812 212.726562 542.023438 212.839844 C 542.285156 212.953125 542.535156 213.089844 542.769531 213.257812 C 543.007812 213.421875 543.222656 213.609375 543.421875 213.816406 C 543.617188 214.027344 543.792969 214.253906 543.941406 214.5 C 544.09375 214.742188 544.21875 215 544.316406 215.273438 C 544.414062 215.542969 544.484375 215.820312 544.523438 216.105469 C 544.566406 216.390625 544.578125 216.675781 544.558594 216.960938 C 544.429688 218.980469 544.210938 220.988281 543.902344 222.988281 C 543.59375 224.988281 543.191406 226.96875 542.707031 228.929688 C 542.21875 230.894531 541.640625 232.828125 540.980469 234.742188 C 540.320312 236.652344 539.570312 238.527344 538.742188 240.371094 C 537.910156 242.214844 537 244.019531 536.003906 245.78125 C 535.011719 247.542969 533.941406 249.253906 532.796875 250.921875 C 531.648438 252.585938 530.429688 254.195312 529.136719 255.75 C 527.847656 257.308594 526.488281 258.800781 525.0625 260.234375 C 523.632812 261.667969 522.148438 263.035156 520.597656 264.332031 C 519.050781 265.632812 517.445312 266.859375 515.785156 268.011719 C 514.125 269.167969 512.417969 270.246094 510.664062 271.246094 C 508.90625 272.246094 507.109375 273.167969 505.269531 274.003906 C 503.429688 274.84375 501.558594 275.597656 499.652344 276.269531 C 497.746094 276.941406 495.8125 277.523438 493.851562 278.019531 C 491.894531 278.515625 489.917969 278.921875 487.921875 279.242188 C 485.925781 279.558594 483.917969 279.785156 481.902344 279.925781 L 536.644531 279.925781 C 537.472656 279.925781 538.296875 280.003906 539.109375 280.167969 C 539.921875 280.328125 540.710938 280.570312 541.476562 280.886719 C 542.246094 281.203125 542.972656 281.59375 543.664062 282.054688 C 544.351562 282.515625 544.988281 283.039062 545.578125 283.625 C 546.164062 284.214844 546.6875 284.851562 547.148438 285.542969 C 547.609375 286.234375 547.996094 286.960938 548.316406 287.730469 C 548.632812 288.496094 548.871094 289.285156 549.035156 290.101562 C 549.195312 290.914062 549.277344 291.738281 549.277344 292.566406 Z M 536.644531 322.066406 L 538.160156 322.066406 L 525.359375 379.71875 C 525.207031 380.410156 524.996094 381.085938 524.726562 381.746094 C 524.457031 382.402344 524.136719 383.03125 523.757812 383.632812 C 523.382812 384.234375 522.957031 384.800781 522.484375 385.332031 C 522.011719 385.859375 521.5 386.347656 520.941406 386.789062 C 520.386719 387.230469 519.796875 387.621094 519.175781 387.960938 C 518.554688 388.304688 517.90625 388.589844 517.234375 388.820312 C 516.566406 389.050781 515.878906 389.222656 515.179688 389.335938 C 514.476562 389.449219 513.773438 389.503906 513.0625 389.496094 L 442.320312 389.496094 C 441.609375 389.5 440.902344 389.445312 440.199219 389.332031 C 439.496094 389.214844 438.804688 389.042969 438.132812 388.808594 C 437.460938 388.574219 436.8125 388.285156 436.1875 387.941406 C 435.5625 387.597656 434.972656 387.203125 434.417969 386.753906 C 433.863281 386.308594 433.347656 385.820312 432.875 385.285156 C 432.402344 384.75 431.980469 384.179688 431.605469 383.574219 C 431.234375 382.96875 430.914062 382.332031 430.648438 381.671875 C 430.382812 381.011719 430.175781 380.332031 430.023438 379.632812 L 417.222656 322.066406 Z M 490.324219 360.5 C 487.796875 353.335938 474.492188 355.023438 471.882812 351.484375 C 471.546875 350.984375 471.382812 350.4375 471.382812 349.839844 C 471.382812 349.242188 471.546875 348.691406 471.882812 348.195312 C 472.515625 347.59375 473.230469 347.101562 474.019531 346.722656 C 474.8125 346.339844 475.640625 346.089844 476.507812 345.96875 C 477.375 345.847656 478.242188 345.863281 479.105469 346.011719 C 479.96875 346.164062 480.789062 346.441406 481.566406 346.847656 C 484.261719 348.53125 483.503906 349.964844 485.523438 349.964844 L 488.808594 349.964844 C 488.972656 349.976562 489.132812 349.957031 489.285156 349.902344 C 489.441406 349.847656 489.578125 349.761719 489.699219 349.652344 C 489.816406 349.539062 489.910156 349.40625 489.976562 349.257812 C 490.039062 349.105469 490.070312 348.949219 490.070312 348.785156 C 489.964844 348.230469 489.8125 347.6875 489.621094 347.160156 C 489.425781 346.628906 489.1875 346.121094 488.910156 345.628906 C 488.632812 345.136719 488.320312 344.671875 487.964844 344.230469 C 487.613281 343.789062 487.226562 343.382812 486.808594 343.003906 C 486.390625 342.625 485.941406 342.285156 485.46875 341.980469 C 484.996094 341.675781 484.5 341.410156 483.980469 341.183594 C 483.464844 340.957031 482.933594 340.777344 482.386719 340.636719 C 481.839844 340.5 481.285156 340.40625 480.722656 340.355469 L 480.722656 337.152344 C 480.722656 336.984375 480.691406 336.824219 480.628906 336.671875 C 480.5625 336.515625 480.472656 336.378906 480.355469 336.261719 C 480.234375 336.140625 480.097656 336.050781 479.945312 335.984375 C 479.789062 335.921875 479.628906 335.890625 479.460938 335.890625 L 475.753906 335.890625 C 475.585938 335.890625 475.425781 335.921875 475.269531 335.984375 C 475.117188 336.050781 474.980469 336.140625 474.863281 336.261719 C 474.742188 336.378906 474.652344 336.515625 474.585938 336.671875 C 474.523438 336.824219 474.492188 336.984375 474.492188 337.152344 L 474.492188 340.273438 C 474.121094 340.300781 473.753906 340.347656 473.390625 340.417969 C 473.023438 340.488281 472.664062 340.578125 472.3125 340.6875 C 471.957031 340.796875 471.609375 340.929688 471.273438 341.082031 C 470.933594 341.230469 470.601562 341.402344 470.285156 341.589844 C 469.964844 341.777344 469.65625 341.984375 469.359375 342.207031 C 469.0625 342.433594 468.78125 342.671875 468.511719 342.929688 C 468.246094 343.183594 467.992188 343.457031 467.753906 343.742188 C 467.519531 344.027344 467.296875 344.324219 467.09375 344.636719 C 466.890625 344.945312 466.707031 345.269531 466.542969 345.601562 C 466.375 345.933594 466.226562 346.273438 466.101562 346.621094 C 465.972656 346.972656 465.867188 347.328125 465.78125 347.6875 C 465.695312 348.046875 465.628906 348.414062 465.585938 348.78125 C 465.542969 349.152344 465.519531 349.519531 465.515625 349.890625 C 465.515625 350.265625 465.535156 350.632812 465.574219 351.003906 C 465.617188 351.371094 465.675781 351.738281 465.761719 352.101562 C 465.84375 352.460938 465.945312 352.816406 466.070312 353.167969 C 468.679688 360.332031 481.3125 358.984375 484.429688 362.101562 C 484.632812 362.34375 484.785156 362.613281 484.894531 362.910156 C 485 363.207031 485.054688 363.515625 485.054688 363.832031 C 485.054688 364.144531 485 364.453125 484.894531 364.75 C 484.785156 365.046875 484.632812 365.316406 484.429688 365.558594 C 483.980469 365.90625 483.507812 366.21875 483.007812 366.488281 C 482.507812 366.761719 481.988281 366.988281 481.453125 367.171875 C 480.914062 367.355469 480.367188 367.496094 479.804688 367.589844 C 479.246094 367.683594 478.679688 367.730469 478.113281 367.730469 C 477.542969 367.730469 476.980469 367.683594 476.421875 367.589844 C 475.859375 367.496094 475.3125 367.355469 474.773438 367.171875 C 474.234375 366.988281 473.71875 366.761719 473.21875 366.488281 C 472.71875 366.21875 472.246094 365.90625 471.796875 365.558594 C 469.859375 363.113281 471.796875 363.28125 465.816406 363.28125 C 462.871094 363.28125 464.722656 371.710938 474.828125 373.3125 L 474.828125 376.429688 C 474.828125 376.597656 474.859375 376.761719 474.925781 376.914062 C 474.988281 377.070312 475.078125 377.207031 475.199219 377.324219 C 475.316406 377.445312 475.453125 377.535156 475.609375 377.597656 C 475.761719 377.664062 475.925781 377.695312 476.089844 377.695312 L 479.796875 377.695312 C 479.964844 377.695312 480.125 377.664062 480.28125 377.597656 C 480.433594 377.535156 480.570312 377.445312 480.691406 377.324219 C 480.808594 377.207031 480.898438 377.070312 480.964844 376.914062 C 481.027344 376.761719 481.0625 376.597656 481.0625 376.429688 L 481.0625 373.3125 C 488.976562 372.636719 492.34375 366.234375 490.324219 360.5 Z M 490.324219 360.5 " fill-opacity="1" fill-rule="nonzero"/></g><g clip-path="url(#7d645a3cc9)"><path fill="#ffacbd" d="M 535.925781 276.148438 C 534.789062 266.402344 525.953125 258.789062 515.25 258.789062 C 512.925781 258.785156 510.65625 259.136719 508.441406 259.851562 C 507.828125 260.035156 507.199219 260.136719 506.558594 260.15625 C 505.917969 260.179688 505.28125 260.117188 504.65625 259.976562 C 504.03125 259.832031 503.433594 259.613281 502.863281 259.3125 C 502.296875 259.015625 501.773438 258.652344 501.300781 258.21875 C 496.097656 253.746094 488.351562 251.042969 479.808594 250.65625 L 479.808594 186.558594 L 488.546875 186.558594 C 489.488281 186.558594 490.429688 186.511719 491.367188 186.417969 C 492.304688 186.324219 493.234375 186.183594 494.160156 185.996094 C 495.082031 185.8125 495.996094 185.582031 496.898438 185.308594 C 497.796875 185.035156 498.683594 184.714844 499.554688 184.355469 C 500.425781 183.992188 501.273438 183.589844 502.105469 183.144531 C 502.9375 182.699219 503.742188 182.214844 504.527344 181.691406 C 505.3125 181.167969 506.066406 180.605469 506.796875 180.007812 C 507.523438 179.410156 508.222656 178.777344 508.886719 178.113281 C 509.554688 177.445312 510.1875 176.746094 510.785156 176.019531 C 511.382812 175.289062 511.945312 174.535156 512.46875 173.75 C 512.992188 172.96875 513.476562 172.160156 513.921875 171.328125 C 514.367188 170.5 514.769531 169.648438 515.132812 168.777344 C 515.492188 167.90625 515.8125 167.019531 516.085938 166.117188 C 516.363281 165.21875 516.59375 164.304688 516.777344 163.378906 C 516.964844 162.457031 517.101562 161.523438 517.199219 160.585938 C 517.292969 159.648438 517.339844 158.707031 517.34375 157.765625 L 517.34375 144.78125 L 504.371094 144.78125 C 503.429688 144.785156 502.488281 144.832031 501.550781 144.925781 C 500.609375 145.019531 499.679688 145.160156 498.753906 145.34375 C 497.828125 145.53125 496.914062 145.761719 496.011719 146.035156 C 495.113281 146.3125 494.226562 146.628906 493.355469 146.992188 C 492.484375 147.351562 491.632812 147.757812 490.800781 148.203125 C 489.96875 148.648438 489.160156 149.132812 488.378906 149.65625 C 487.59375 150.183594 486.835938 150.746094 486.109375 151.34375 C 485.378906 151.941406 484.683594 152.574219 484.015625 153.242188 C 483.347656 153.910156 482.714844 154.609375 482.117188 155.339844 C 481.519531 156.066406 480.957031 156.824219 480.433594 157.609375 C 479.910156 158.394531 479.425781 159.203125 478.980469 160.035156 C 478.535156 160.867188 478.132812 161.71875 477.769531 162.589844 C 477.410156 163.460938 477.09375 164.347656 476.816406 165.25 C 476.542969 166.152344 476.3125 167.066406 476.128906 167.992188 C 475.945312 168.917969 475.804688 169.851562 475.710938 170.789062 C 475.617188 171.730469 475.570312 172.671875 475.570312 173.613281 L 475.570312 199.214844 C 474.621094 197.984375 473.550781 196.878906 472.347656 195.894531 C 471.148438 194.910156 469.851562 194.074219 468.457031 193.390625 C 467.066406 192.707031 465.613281 192.1875 464.101562 191.835938 C 462.589844 191.484375 461.058594 191.308594 459.507812 191.3125 L 449.976562 191.3125 L 449.976562 200.847656 C 449.976562 201.511719 450.011719 202.171875 450.078125 202.832031 C 450.144531 203.496094 450.242188 204.148438 450.375 204.800781 C 450.503906 205.453125 450.667969 206.097656 450.863281 206.730469 C 451.054688 207.367188 451.28125 207.992188 451.535156 208.601562 C 451.792969 209.214844 452.074219 209.816406 452.390625 210.402344 C 452.703125 210.984375 453.046875 211.554688 453.414062 212.105469 C 453.785156 212.65625 454.179688 213.191406 454.601562 213.703125 C 455.023438 214.214844 455.46875 214.707031 455.9375 215.175781 C 456.410156 215.644531 456.902344 216.089844 457.414062 216.511719 C 457.929688 216.933594 458.460938 217.328125 459.011719 217.695312 C 459.566406 218.0625 460.132812 218.40625 460.71875 218.71875 C 461.304688 219.03125 461.90625 219.3125 462.519531 219.566406 C 463.132812 219.820312 463.757812 220.046875 464.390625 220.238281 C 465.027344 220.429688 465.667969 220.59375 466.320312 220.722656 C 466.972656 220.851562 467.628906 220.949219 468.289062 221.015625 C 468.949219 221.078125 469.609375 221.113281 470.273438 221.113281 L 475.570312 221.113281 L 475.570312 250.664062 C 467.03125 251.050781 459.285156 253.757812 454.078125 258.230469 C 453.605469 258.660156 453.082031 259.027344 452.515625 259.324219 C 451.945312 259.621094 451.347656 259.84375 450.722656 259.984375 C 450.097656 260.128906 449.464844 260.191406 448.820312 260.167969 C 448.179688 260.148438 447.550781 260.042969 446.9375 259.859375 C 444.722656 259.148438 442.453125 258.792969 440.128906 258.800781 C 429.429688 258.800781 420.589844 266.414062 419.480469 276.160156 L 412.035156 276.160156 L 412.035156 280.398438 L 543.308594 280.398438 L 543.308594 276.160156 Z M 479.804688 173.613281 C 479.804688 172.808594 479.847656 172.007812 479.925781 171.207031 C 480.003906 170.402344 480.125 169.609375 480.28125 168.820312 C 480.4375 168.03125 480.632812 167.25 480.867188 166.480469 C 481.101562 165.710938 481.375 164.953125 481.683594 164.210938 C 481.988281 163.464844 482.332031 162.738281 482.714844 162.03125 C 483.09375 161.320312 483.503906 160.628906 483.953125 159.960938 C 484.398438 159.292969 484.878906 158.644531 485.386719 158.023438 C 485.898438 157.402344 486.4375 156.804688 487.007812 156.238281 C 487.574219 155.667969 488.171875 155.128906 488.792969 154.617188 C 489.414062 154.105469 490.058594 153.625 490.726562 153.179688 C 491.398438 152.730469 492.085938 152.316406 492.792969 151.9375 C 493.503906 151.558594 494.230469 151.210938 494.972656 150.902344 C 495.714844 150.59375 496.472656 150.324219 497.242188 150.089844 C 498.011719 149.855469 498.789062 149.65625 499.578125 149.5 C 500.367188 149.339844 501.164062 149.222656 501.964844 149.140625 C 502.765625 149.0625 503.566406 149.019531 504.371094 149.019531 L 513.105469 149.019531 L 513.105469 157.765625 C 513.105469 158.570312 513.066406 159.375 512.984375 160.175781 C 512.90625 160.976562 512.789062 161.769531 512.628906 162.5625 C 512.472656 163.351562 512.277344 164.128906 512.042969 164.898438 C 511.808594 165.671875 511.535156 166.425781 511.226562 167.171875 C 510.917969 167.914062 510.574219 168.640625 510.195312 169.351562 C 509.816406 170.0625 509.402344 170.75 508.953125 171.421875 C 508.507812 172.089844 508.027344 172.734375 507.515625 173.359375 C 507.007812 173.980469 506.464844 174.574219 505.898438 175.144531 C 505.328125 175.714844 504.734375 176.253906 504.109375 176.765625 C 503.488281 177.277344 502.84375 177.753906 502.175781 178.203125 C 501.503906 178.648438 500.816406 179.0625 500.105469 179.441406 C 499.398438 179.824219 498.671875 180.167969 497.925781 180.476562 C 497.183594 180.785156 496.425781 181.054688 495.65625 181.289062 C 494.886719 181.523438 494.105469 181.71875 493.316406 181.878906 C 492.527344 182.035156 491.734375 182.152344 490.933594 182.234375 C 490.132812 182.3125 489.328125 182.351562 488.523438 182.355469 L 482.785156 182.355469 L 503.273438 161.855469 L 500.285156 158.855469 L 479.804688 179.359375 Z M 472.558594 216.875 L 470.273438 216.875 C 469.75 216.875 469.226562 216.847656 468.703125 216.796875 C 468.179688 216.742188 467.660156 216.664062 467.144531 216.5625 C 466.632812 216.457031 466.121094 216.332031 465.621094 216.175781 C 465.117188 216.023438 464.625 215.847656 464.136719 215.644531 C 463.652344 215.445312 463.179688 215.21875 462.714844 214.972656 C 462.253906 214.722656 461.804688 214.453125 461.367188 214.160156 C 460.929688 213.867188 460.507812 213.554688 460.101562 213.222656 C 459.695312 212.890625 459.308594 212.535156 458.9375 212.164062 C 458.566406 211.792969 458.214844 211.402344 457.878906 210.996094 C 457.546875 210.589844 457.234375 210.167969 456.941406 209.734375 C 456.652344 209.296875 456.378906 208.847656 456.132812 208.382812 C 455.886719 207.917969 455.660156 207.445312 455.460938 206.960938 C 455.257812 206.472656 455.082031 205.980469 454.929688 205.476562 C 454.773438 204.972656 454.648438 204.464844 454.542969 203.949219 C 454.441406 203.433594 454.363281 202.914062 454.3125 202.390625 C 454.257812 201.871094 454.234375 201.34375 454.234375 200.820312 L 454.234375 195.523438 L 459.527344 195.523438 C 460.054688 195.523438 460.578125 195.550781 461.101562 195.601562 C 461.625 195.652344 462.144531 195.730469 462.660156 195.835938 C 463.175781 195.9375 463.683594 196.066406 464.1875 196.21875 C 464.691406 196.375 465.183594 196.550781 465.671875 196.753906 C 466.15625 196.953125 466.628906 197.179688 467.09375 197.429688 C 467.558594 197.675781 468.007812 197.949219 468.445312 198.242188 C 468.882812 198.535156 469.304688 198.847656 469.710938 199.179688 C 470.117188 199.515625 470.503906 199.867188 470.875 200.242188 C 471.246094 200.613281 471.597656 201.003906 471.933594 201.410156 C 472.265625 201.816406 472.578125 202.238281 472.871094 202.675781 C 473.160156 203.113281 473.433594 203.566406 473.679688 204.03125 C 473.925781 204.496094 474.152344 204.96875 474.351562 205.457031 C 474.550781 205.941406 474.730469 206.4375 474.882812 206.941406 C 475.035156 207.445312 475.160156 207.953125 475.261719 208.46875 C 475.367188 208.984375 475.441406 209.507812 475.492188 210.03125 C 475.542969 210.554688 475.570312 211.078125 475.570312 211.605469 L 475.570312 213.875 L 462.636719 200.929688 L 459.636719 203.929688 Z M 472.558594 216.875 " fill-opacity="1" fill-rule="nonzero"/></g><g clip-path="url(#b4698e357b)"><g clip-path="url(#43dfa1d93f)"><g clip-path="url(#81e3727da8)"><path fill="#afb2ed" d="M 432.039062 218.910156 C 432.039062 218.910156 432.042969 218.910156 432.042969 218.914062 C 436.878906 228.414062 433.890625 239.675781 425.378906 244.019531 C 423.707031 244.871094 421.910156 245.414062 420.039062 245.628906 C 420.007812 245.632812 419.972656 245.644531 419.9375 245.652344 C 413.800781 245.917969 406.355469 241.222656 402.464844 234.574219 C 402.152344 234.039062 401.460938 233.859375 400.921875 234.175781 C 400.386719 234.488281 400.203125 235.179688 400.515625 235.714844 C 402.6875 239.425781 405.925781 242.6875 409.628906 244.90625 C 412.195312 246.441406 414.871094 247.414062 417.40625 247.765625 C 416.625 248.375 415.785156 248.910156 414.894531 249.367188 C 406.382812 253.707031 395.511719 249.515625 390.667969 240.035156 C 390.664062 240.03125 390.65625 240.015625 390.65625 240.011719 C 390.574219 239.847656 390.492188 239.683594 390.414062 239.523438 C 390.394531 239.476562 390.371094 239.433594 390.351562 239.386719 L 390.292969 239.265625 C 390.261719 239.199219 390.230469 239.132812 390.199219 239.0625 C 387.742188 233.648438 387.484375 227.558594 389.464844 221.917969 C 391.457031 216.261719 395.503906 211.640625 400.863281 208.90625 C 406.222656 206.171875 412.339844 205.609375 418.089844 207.320312 C 423.820312 209.023438 428.59375 212.808594 431.535156 217.980469 C 431.570312 218.039062 431.605469 218.097656 431.636719 218.160156 L 431.707031 218.285156 C 431.734375 218.328125 431.757812 218.375 431.785156 218.421875 C 431.867188 218.578125 431.949219 218.734375 432.03125 218.894531 C 432.035156 218.898438 432.039062 218.90625 432.039062 218.910156 Z M 433.769531 217.347656 C 433.742188 217.292969 433.710938 217.238281 433.679688 217.1875 L 433.613281 217.0625 C 433.574219 216.996094 433.535156 216.925781 433.5 216.859375 C 430.269531 211.191406 425.03125 207.035156 418.742188 205.164062 C 412.4375 203.289062 405.722656 203.90625 399.84375 206.90625 C 393.960938 209.90625 389.519531 214.976562 387.339844 221.183594 C 385.160156 227.371094 385.449219 234.054688 388.144531 239.992188 C 388.179688 240.070312 388.214844 240.144531 388.25 240.222656 L 388.304688 240.335938 C 388.328125 240.390625 388.351562 240.445312 388.378906 240.5 C 388.464844 240.679688 388.554688 240.859375 388.644531 241.035156 L 388.648438 241.042969 C 388.652344 241.050781 388.652344 241.054688 388.65625 241.0625 C 394.074219 251.648438 406.300781 256.273438 415.914062 251.367188 C 417.695312 250.460938 419.292969 249.273438 420.679688 247.839844 C 420.722656 247.824219 420.765625 247.8125 420.808594 247.796875 C 422.761719 247.511719 424.640625 246.917969 426.398438 246.019531 C 436.019531 241.113281 439.453125 228.492188 434.054688 217.890625 C 434.054688 217.886719 434.050781 217.886719 434.050781 217.882812 C 434.050781 217.878906 434.046875 217.878906 434.046875 217.875 C 433.957031 217.699219 433.863281 217.519531 433.769531 217.347656 " fill-opacity="1" fill-rule="nonzero"/></g></g></g><g clip-path="url(#db31972ba8)"><g clip-path="url(#efb441ba90)"><g clip-path="url(#ca3456d8ae)"><path fill="#afb2ed" d="M 398.304688 193.332031 C 399.40625 189.964844 401.84375 187.285156 405.058594 185.859375 C 406.816406 188.886719 407.203125 192.472656 406.101562 195.839844 C 405 199.203125 402.566406 201.882812 399.347656 203.308594 C 397.585938 200.285156 397.203125 196.695312 398.304688 193.332031 Z M 387.757812 197.246094 C 392.144531 197.695312 395.03125 200.660156 396.570312 202.800781 C 396.945312 203.679688 397.40625 204.527344 397.957031 205.335938 L 398.449219 206.054688 L 399.269531 205.757812 C 399.867188 205.542969 400.441406 205.292969 400.992188 205.011719 C 404.429688 203.257812 407.027344 200.246094 408.246094 196.527344 C 409.65625 192.210938 409.003906 187.582031 406.449219 183.832031 L 405.957031 183.113281 L 405.132812 183.410156 C 400.84375 184.960938 397.574219 188.324219 396.160156 192.640625 C 395.550781 194.503906 395.328125 196.421875 395.472656 198.304688 C 393.605469 196.710938 391.128906 195.328125 387.996094 195.007812 C 387.378906 194.945312 386.824219 195.394531 386.757812 196.011719 C 386.691406 196.628906 387.136719 197.179688 387.757812 197.246094 " fill-opacity="1" fill-rule="nonzero"/></g></g></g><g clip-path="url(#82ab33f383)"><g clip-path="url(#7f7a54bc30)"><g clip-path="url(#613a34b6c5)"><path fill="#afb2ed" d="M 529.054688 225.210938 C 529.054688 225.210938 529.054688 225.214844 529.054688 225.214844 C 529.054688 225.214844 529.054688 225.214844 529.054688 225.21875 C 524.433594 234.824219 527.675781 246.015625 536.285156 250.164062 C 537.976562 250.976562 539.785156 251.480469 541.660156 251.652344 C 541.695312 251.65625 541.726562 251.664062 541.761719 251.671875 C 547.902344 251.796875 555.242188 246.933594 558.980469 240.199219 C 559.28125 239.65625 559.96875 239.460938 560.511719 239.765625 C 561.058594 240.066406 561.253906 240.75 560.953125 241.292969 C 558.867188 245.054688 555.707031 248.390625 552.050781 250.691406 C 549.519531 252.285156 546.867188 253.320312 544.339844 253.726562 C 545.136719 254.320312 545.988281 254.835938 546.886719 255.269531 C 555.496094 259.417969 566.269531 254.980469 570.898438 245.390625 C 570.898438 245.386719 570.90625 245.371094 570.910156 245.367188 C 570.988281 245.203125 571.066406 245.039062 571.140625 244.871094 C 571.160156 244.828125 571.179688 244.78125 571.199219 244.734375 L 571.253906 244.613281 C 571.285156 244.546875 571.3125 244.476562 571.34375 244.40625 C 573.675781 238.9375 573.796875 232.847656 571.6875 227.253906 C 569.570312 221.640625 565.417969 217.113281 559.996094 214.5 C 554.578125 211.890625 548.445312 211.464844 542.738281 213.308594 C 537.050781 215.140625 532.359375 219.035156 529.539062 224.269531 C 529.503906 224.328125 529.472656 224.390625 529.441406 224.453125 L 529.375 224.582031 C 529.347656 224.625 529.324219 224.671875 529.300781 224.71875 C 529.21875 224.875 529.140625 225.035156 529.0625 225.195312 C 529.0625 225.199219 529.058594 225.207031 529.054688 225.210938 Z M 527.292969 223.691406 C 527.320312 223.632812 527.347656 223.582031 527.378906 223.527344 L 527.441406 223.402344 C 527.480469 223.332031 527.515625 223.261719 527.550781 223.195312 C 530.648438 217.453125 535.792969 213.183594 542.035156 211.167969 C 548.300781 209.148438 555.023438 209.613281 560.972656 212.476562 C 566.917969 215.34375 571.472656 220.3125 573.796875 226.46875 C 576.113281 232.605469 575.980469 239.292969 573.421875 245.289062 C 573.386719 245.367188 573.355469 245.445312 573.320312 245.523438 L 573.269531 245.636719 C 573.246094 245.695312 573.222656 245.75 573.195312 245.800781 C 573.113281 245.984375 573.03125 246.164062 572.945312 246.34375 L 572.941406 246.351562 C 572.9375 246.359375 572.933594 246.367188 572.929688 246.371094 C 567.757812 257.078125 555.640625 261.980469 545.914062 257.292969 C 544.117188 256.425781 542.488281 255.277344 541.070312 253.875 C 541.027344 253.863281 540.984375 253.847656 540.941406 253.835938 C 538.980469 253.597656 537.089844 253.042969 535.308594 252.1875 C 525.582031 247.5 521.863281 234.960938 527.019531 224.238281 C 527.019531 224.234375 527.019531 224.234375 527.023438 224.230469 C 527.023438 224.230469 527.023438 224.226562 527.023438 224.222656 C 527.113281 224.042969 527.199219 223.863281 527.292969 223.691406 " fill-opacity="1" fill-rule="nonzero"/></g></g></g><g clip-path="url(#6e59440f9f)"><g clip-path="url(#a8b82a18e1)"><g clip-path="url(#a35329f05e)"><path fill="#afb2ed" d="M 562.199219 198.875 C 561.023438 195.53125 558.523438 192.910156 555.28125 191.558594 C 553.589844 194.621094 553.285156 198.21875 554.464844 201.554688 C 555.640625 204.894531 558.136719 207.519531 561.386719 208.871094 C 563.074219 205.808594 563.378906 202.210938 562.199219 198.875 Z M 572.835938 202.542969 C 568.457031 203.09375 565.640625 206.125 564.148438 208.300781 C 563.796875 209.1875 563.355469 210.046875 562.820312 210.867188 L 562.347656 211.597656 L 561.515625 211.320312 C 560.917969 211.117188 560.335938 210.882812 559.777344 210.613281 C 556.300781 208.9375 553.636719 205.984375 552.335938 202.292969 C 550.824219 198.011719 551.375 193.371094 553.84375 189.5625 L 554.316406 188.832031 L 555.148438 189.109375 C 559.472656 190.5625 562.816406 193.851562 564.328125 198.136719 C 564.980469 199.980469 565.246094 201.894531 565.144531 203.777344 C 566.976562 202.144531 569.421875 200.707031 572.542969 200.3125 C 573.160156 200.234375 573.726562 200.671875 573.808594 201.289062 C 573.886719 201.90625 573.453125 202.46875 572.835938 202.542969 " fill-opacity="1" fill-rule="nonzero"/></g></g></g></svg>