<svg xmlns="http://www.w3.org/2000/svg" xmlns:xlink="http://www.w3.org/1999/xlink" width="320" zoomAndPan="magnify" viewBox="0 0 240 74.999997" height="100" preserveAspectRatio="xMidYMid meet" version="1.0"><defs><g/><clipPath id="04cf1d7872"><path d="M 36.4375 19.457031 L 69.4375 19.457031 L 69.4375 49.457031 L 36.4375 49.457031 Z M 36.4375 19.457031 " clip-rule="nonzero"/></clipPath><clipPath id="71ad4da81c"><path d="M 105 33.480469 L 135 33.480469 L 135 63.480469 L 105 63.480469 Z M 105 33.480469 " clip-rule="nonzero"/></clipPath></defs><g clip-path="url(#04cf1d7872)"><path fill="#ffffff" d="M 42.503906 20.894531 L 51.667969 29.984375 L 54.511719 32.800781 C 55.523438 33.808594 55.523438 35.445312 54.511719 36.449219 L 51.667969 39.269531 L 42.421875 48.4375 C 41.765625 49.089844 40.933594 49.402344 40.078125 49.402344 C 39.222656 49.402344 38.367188 49.089844 37.730469 48.4375 C 36.4375 47.136719 36.519531 45.007812 37.8125 43.726562 L 46.957031 34.65625 L 46.957031 34.636719 L 37.730469 25.488281 C 37.074219 24.835938 36.757812 24.007812 36.757812 23.160156 C 36.757812 22.3125 37.09375 21.464844 37.75 20.8125 C 39.0625 19.511719 41.210938 19.59375 42.503906 20.894531 Z M 56.417969 20.894531 L 65.582031 29.984375 L 68.425781 32.800781 C 69.4375 33.808594 69.4375 35.445312 68.425781 36.449219 L 65.582031 39.269531 L 56.339844 48.4375 C 55.683594 49.089844 54.847656 49.402344 53.992188 49.402344 C 53.136719 49.402344 52.285156 49.089844 51.648438 48.4375 C 50.355469 47.136719 50.433594 45.007812 51.726562 43.726562 L 60.871094 34.65625 L 60.871094 34.636719 L 51.648438 25.488281 C 51.011719 24.835938 50.671875 24.007812 50.671875 23.160156 C 50.671875 22.3125 51.011719 21.464844 51.667969 20.8125 C 52.980469 19.511719 55.125 19.59375 56.417969 20.894531 Z M 56.417969 20.894531 " fill-opacity="1" fill-rule="nonzero"/></g><g fill="#ffffff" fill-opacity="1"><g transform="translate(89.319138, 41.583619)"><g><path d="M 5.859375 0.160156 L 6.445312 0.222656 L 7.09375 0.203125 L 9.070312 -0.183594 L 10.121094 -0.746094 L 10.769531 -1.191406 L 11.335938 -1.839844 L 11.738281 -2.484375 L 11.902344 -2.847656 L 12.023438 -3.253906 L 12.082031 -3.617188 L 12.101562 -4.871094 L 12.042969 -5.273438 L 11.941406 -5.65625 L 11.535156 -6.40625 L 11.050781 -7.03125 L 10.707031 -7.3125 L 9.636719 -7.800781 L 7.980469 -8.203125 L 5.941406 -8.464844 L 5.089844 -8.769531 L 4.789062 -8.929688 L 4.464844 -9.253906 L 4.445312 -9.800781 L 4.503906 -10.324219 L 4.726562 -10.609375 L 5.070312 -10.871094 L 5.355469 -10.992188 L 5.71875 -11.074219 L 7.011719 -11.113281 L 7.457031 -10.949219 L 7.757812 -10.707031 L 8.425781 -10 L 9.050781 -9.800781 L 10.386719 -9.757812 L 10.75 -9.800781 L 11.132812 -9.757812 L 11.515625 -10 L 11.699219 -10.386719 L 11.535156 -11.171875 L 11.214844 -11.902344 L 10.949219 -12.222656 L 10.75 -12.546875 L 10.488281 -12.851562 L 9.191406 -13.738281 L 8.082031 -14.125 L 7.65625 -14.203125 L 7.292969 -14.246094 L 6.847656 -14.34375 L 5.71875 -14.324219 L 4.121094 -14.003906 L 3.757812 -13.859375 L 3.433594 -13.660156 L 3.113281 -13.539062 L 2.707031 -13.292969 L 2.425781 -13.03125 L 2.0625 -12.789062 L 1.839844 -12.445312 L 1.574219 -12.183594 L 1.433594 -11.820312 L 1.234375 -11.496094 L 0.949219 -10.324219 L 0.96875 -8.972656 L 1.109375 -8.40625 L 1.375 -7.699219 L 1.878906 -7.03125 L 2.445312 -6.507812 L 3.152344 -6.082031 L 4.304688 -5.699219 L 5.03125 -5.535156 L 6.6875 -5.414062 L 7.050781 -5.355469 L 7.457031 -5.335938 L 8.183594 -5.03125 L 8.464844 -4.789062 L 8.566406 -4.261719 L 8.445312 -3.738281 L 8.121094 -3.453125 L 7.800781 -3.273438 L 7.050781 -3.050781 L 6.484375 -3.03125 L 5.878906 -3.070312 L 5.414062 -3.191406 L 5.113281 -3.332031 L 4.75 -3.554688 L 4.445312 -3.839844 L 4.140625 -4.242188 L 3.738281 -4.40625 L 2.203125 -4.445312 L 1.796875 -4.40625 L 1.394531 -4.425781 L 0.988281 -4.242188 L 0.847656 -3.820312 L 0.890625 -3.375 L 0.96875 -3.011719 L 1.292969 -2.203125 L 1.796875 -1.574219 L 2.382812 -0.988281 L 2.726562 -0.769531 L 4.183594 -0.101562 L 4.625 -0.0390625 L 5.011719 0.101562 Z M 5.859375 0.160156 "/></g></g></g><g fill="#ffffff" fill-opacity="1"><g transform="translate(102.208721, 41.583619)"><g><path d="M 5.960938 0.160156 L 6.929688 0.242188 L 7.941406 0.203125 L 8.75 0.0195312 L 9.171875 -0.140625 L 9.578125 -0.242188 L 9.902344 -0.445312 L 10.265625 -0.605469 L 10.585938 -0.828125 L 11.496094 -1.636719 L 11.71875 -2 L 11.980469 -2.304688 L 12.101562 -2.707031 L 12.304688 -3.050781 L 12.445312 -3.433594 L 12.585938 -5.476562 L 12.527344 -7.113281 L 12.609375 -7.535156 L 12.609375 -7.898438 L 12.527344 -8.304688 L 12.507812 -8.6875 L 12.546875 -9.113281 L 12.527344 -9.679688 L 12.566406 -10.304688 L 12.546875 -10.75 L 12.609375 -11.132812 L 12.546875 -11.535156 L 12.566406 -13.171875 L 12.507812 -13.515625 L 12.34375 -13.960938 L 11.699219 -14.144531 L 9.800781 -14.164062 L 9.355469 -13.980469 L 9.152344 -13.539062 L 9.171875 -11.558594 L 9.132812 -11.152344 L 9.152344 -10.363281 L 9.113281 -9.941406 L 9.171875 -9.515625 L 9.113281 -7.921875 L 9.191406 -7.558594 L 9.152344 -7.113281 L 9.171875 -6.386719 L 9.132812 -5.980469 L 9.152344 -4.949219 L 9.070312 -4.304688 L 8.890625 -3.917969 L 8.707031 -3.636719 L 8.386719 -3.332031 L 7.578125 -3.070312 L 7.03125 -3.03125 L 6.363281 -3.070312 L 6 -3.171875 L 5.554688 -3.394531 L 5.253906 -3.65625 L 5.011719 -3.941406 L 4.890625 -4.363281 L 4.847656 -7.921875 L 4.789062 -8.324219 L 4.769531 -9.578125 L 4.808594 -9.941406 L 4.808594 -11.558594 L 4.75 -12.144531 L 4.75 -12.527344 L 4.847656 -13.132812 L 4.847656 -13.558594 L 4.625 -13.941406 L 4.140625 -14.125 L 2.019531 -14.144531 L 1.617188 -13.921875 L 1.433594 -13.515625 L 1.433594 -12.304688 L 1.332031 -11.960938 L 1.414062 -11.113281 L 1.355469 -10.34375 L 1.453125 -9.132812 L 1.375 -8.75 L 1.433594 -8.304688 L 1.394531 -7.921875 L 1.414062 -7.515625 L 1.375 -7.132812 L 1.433594 -6.324219 L 1.414062 -4.871094 L 1.476562 -4.285156 L 1.476562 -3.859375 L 1.597656 -3.453125 L 1.65625 -3.070312 L 1.777344 -2.6875 L 2.183594 -2 L 2.726562 -1.332031 L 2.992188 -1.070312 L 3.675781 -0.667969 L 3.980469 -0.425781 L 4.363281 -0.261719 L 4.828125 -0.121094 L 5.132812 0.0390625 L 5.578125 0.0625 Z M 5.960938 0.160156 "/></g></g></g><g fill="#ffffff" fill-opacity="1"><g transform="translate(116.14887, 41.583619)"><g><path d="M 1.476562 -0.605469 L 1.695312 -0.140625 L 2.082031 0.0390625 L 8.769531 -0.0390625 L 9.535156 -0.140625 L 10.203125 -0.402344 L 10.972656 -0.847656 L 11.234375 -1.050781 L 11.558594 -1.355469 L 12.023438 -2.019531 L 12.203125 -2.40625 L 12.285156 -2.746094 L 12.445312 -3.152344 L 12.464844 -4.769531 L 12.386719 -5.152344 L 12.246094 -5.578125 L 11.878906 -6.285156 L 11.597656 -6.628906 L 11.292969 -6.929688 L 11.113281 -7.375 L 11.195312 -7.777344 L 11.414062 -8.183594 L 11.660156 -8.527344 L 11.941406 -9.980469 L 11.921875 -10.566406 L 11.699219 -11.316406 L 11.496094 -11.699219 L 11.375 -12.082031 L 10.890625 -12.730469 L 10.609375 -13.011719 L 10 -13.4375 L 9.253906 -13.839844 L 8.121094 -14.101562 L 2.039062 -14.144531 L 1.636719 -13.960938 L 1.453125 -13.539062 L 1.496094 -12.667969 L 1.453125 -12.082031 L 1.535156 -10.730469 L 1.476562 -10.304688 L 1.515625 -9.878906 L 1.476562 -9.496094 L 1.496094 -9.070312 L 1.453125 -8.6875 L 1.453125 -7.070312 L 1.515625 -6.648438 L 1.476562 -6.261719 L 1.476562 -5.457031 L 1.515625 -5.070312 L 1.476562 -3.414062 L 1.535156 -2.585938 L 1.453125 -1.375 Z M 5.617188 -8.667969 L 5.132812 -8.828125 L 4.929688 -9.234375 L 5.011719 -9.578125 L 5.011719 -9.960938 L 4.96875 -10.34375 L 5.191406 -10.6875 L 5.617188 -10.910156 L 7.070312 -10.851562 L 7.699219 -10.730469 L 7.941406 -10.566406 L 8.203125 -10.285156 L 8.265625 -9.738281 L 8.164062 -9.132812 L 7.820312 -8.808594 L 7.132812 -8.667969 Z M 5.554688 -3.210938 L 5.210938 -3.375 L 4.992188 -3.796875 L 5.011719 -4.140625 L 4.96875 -4.527344 L 4.992188 -4.929688 L 5.132812 -5.292969 L 5.535156 -5.496094 L 7.679688 -5.496094 L 8.242188 -5.394531 L 8.546875 -5.171875 L 8.851562 -4.890625 L 8.890625 -4.324219 L 8.851562 -3.796875 L 8.585938 -3.515625 L 8.222656 -3.292969 L 7.132812 -3.191406 Z M 5.554688 -3.210938 "/></g></g></g><g fill="#ffffff" fill-opacity="1"><g transform="translate(129.48293, 41.583619)"><g><path d="M 5.859375 0.160156 L 6.445312 0.222656 L 7.09375 0.203125 L 9.070312 -0.183594 L 10.121094 -0.746094 L 10.769531 -1.191406 L 11.335938 -1.839844 L 11.738281 -2.484375 L 11.902344 -2.847656 L 12.023438 -3.253906 L 12.082031 -3.617188 L 12.101562 -4.871094 L 12.042969 -5.273438 L 11.941406 -5.65625 L 11.535156 -6.40625 L 11.050781 -7.03125 L 10.707031 -7.3125 L 9.636719 -7.800781 L 7.980469 -8.203125 L 5.941406 -8.464844 L 5.089844 -8.769531 L 4.789062 -8.929688 L 4.464844 -9.253906 L 4.445312 -9.800781 L 4.503906 -10.324219 L 4.726562 -10.609375 L 5.070312 -10.871094 L 5.355469 -10.992188 L 5.71875 -11.074219 L 7.011719 -11.113281 L 7.457031 -10.949219 L 7.757812 -10.707031 L 8.425781 -10 L 9.050781 -9.800781 L 10.386719 -9.757812 L 10.75 -9.800781 L 11.132812 -9.757812 L 11.515625 -10 L 11.699219 -10.386719 L 11.535156 -11.171875 L 11.214844 -11.902344 L 10.949219 -12.222656 L 10.75 -12.546875 L 10.488281 -12.851562 L 9.191406 -13.738281 L 8.082031 -14.125 L 7.65625 -14.203125 L 7.292969 -14.246094 L 6.847656 -14.34375 L 5.71875 -14.324219 L 4.121094 -14.003906 L 3.757812 -13.859375 L 3.433594 -13.660156 L 3.113281 -13.539062 L 2.707031 -13.292969 L 2.425781 -13.03125 L 2.0625 -12.789062 L 1.839844 -12.445312 L 1.574219 -12.183594 L 1.433594 -11.820312 L 1.234375 -11.496094 L 0.949219 -10.324219 L 0.96875 -8.972656 L 1.109375 -8.40625 L 1.375 -7.699219 L 1.878906 -7.03125 L 2.445312 -6.507812 L 3.152344 -6.082031 L 4.304688 -5.699219 L 5.03125 -5.535156 L 6.6875 -5.414062 L 7.050781 -5.355469 L 7.457031 -5.335938 L 8.183594 -5.03125 L 8.464844 -4.789062 L 8.566406 -4.261719 L 8.445312 -3.738281 L 8.121094 -3.453125 L 7.800781 -3.273438 L 7.050781 -3.050781 L 6.484375 -3.03125 L 5.878906 -3.070312 L 5.414062 -3.191406 L 5.113281 -3.332031 L 4.75 -3.554688 L 4.445312 -3.839844 L 4.140625 -4.242188 L 3.738281 -4.40625 L 2.203125 -4.445312 L 1.796875 -4.40625 L 1.394531 -4.425781 L 0.988281 -4.242188 L 0.847656 -3.820312 L 0.890625 -3.375 L 0.96875 -3.011719 L 1.292969 -2.203125 L 1.796875 -1.574219 L 2.382812 -0.988281 L 2.726562 -0.769531 L 4.183594 -0.101562 L 4.625 -0.0390625 L 5.011719 0.101562 Z M 5.859375 0.160156 "/></g></g></g><g fill="#ffffff" fill-opacity="1"><g transform="translate(142.372513, 41.583619)"><g><path d="M 7.433594 0.203125 L 8.648438 0.261719 L 10.609375 -0.140625 L 11.71875 -0.625 L 12.023438 -0.828125 L 12.386719 -1.050781 L 12.730469 -1.292969 L 12.992188 -1.554688 L 13.214844 -1.898438 L 13.558594 -2.160156 L 14.164062 -3.210938 L 14.34375 -3.578125 L 14.445312 -3.960938 L 14.589844 -4.363281 L 14.648438 -4.75 L 14.527344 -5.113281 L 14.023438 -5.335938 L 11.859375 -5.355469 L 11.414062 -5.152344 L 11.011719 -4.769531 L 10.851562 -4.425781 L 10.082031 -3.597656 L 9.394531 -3.253906 L 8.992188 -3.132812 L 8.566406 -3.089844 L 7.433594 -3.113281 L 6.34375 -3.515625 L 5.960938 -3.699219 L 5.699219 -3.980469 L 4.949219 -4.949219 L 4.789062 -5.292969 L 4.546875 -6.082031 L 4.484375 -7.03125 L 4.503906 -7.679688 L 4.648438 -8.042969 L 4.667969 -8.445312 L 4.789062 -8.808594 L 5.132812 -9.535156 L 5.636719 -10.164062 L 6.304688 -10.648438 L 6.6875 -10.808594 L 7.394531 -11.011719 L 8.648438 -10.972656 L 9.414062 -10.828125 L 9.839844 -10.6875 L 10.425781 -10.203125 L 10.730469 -9.878906 L 10.910156 -9.535156 L 11.273438 -9.152344 L 11.71875 -8.972656 L 13.757812 -8.929688 L 14.164062 -8.972656 L 14.488281 -9.152344 L 14.609375 -9.578125 L 14.445312 -9.980469 L 14.386719 -10.34375 L 14.0625 -11.113281 L 13.316406 -12.144531 L 12.265625 -13.09375 L 11.820312 -13.394531 L 10.667969 -13.921875 L 9.878906 -14.144531 L 8.871094 -14.285156 L 7.03125 -14.285156 L 6.6875 -14.246094 L 6.304688 -14.125 L 5.515625 -13.960938 L 5.132812 -13.820312 L 4.828125 -13.636719 L 4.464844 -13.496094 L 3.050781 -12.585938 L 2.808594 -12.265625 L 2.261719 -11.757812 L 2.019531 -11.414062 L 1.089844 -9.597656 L 0.726562 -7.070312 L 0.808594 -6.425781 L 0.808594 -5.617188 L 1.011719 -4.828125 L 1.171875 -4.445312 L 1.234375 -4.082031 L 1.433594 -3.71875 L 1.574219 -3.375 L 2.382812 -2.203125 L 3.113281 -1.496094 L 3.453125 -1.273438 L 3.757812 -1.03125 L 5.132812 -0.28125 L 5.535156 -0.140625 L 5.839844 -0.0625 L 6.261719 0.0820312 L 6.6875 0.121094 L 7.050781 0.203125 Z M 7.433594 0.203125 "/></g></g></g><g fill="#ffffff" fill-opacity="1"><g transform="translate(157.787486, 41.583619)"><g><path d="M 1.554688 -0.648438 L 1.695312 -0.203125 L 2.101562 0 L 2.484375 0.0195312 L 3.3125 -0.0390625 L 3.738281 0 L 4.34375 0 L 4.96875 -0.203125 L 5.113281 -0.585938 L 5.152344 -1.011719 L 5.070312 -1.433594 L 5.132812 -2.304688 L 5.089844 -3.554688 L 5.273438 -3.960938 L 5.675781 -4.164062 L 6.042969 -4.164062 L 6.40625 -4.183594 L 6.910156 -4.019531 L 7.234375 -3.675781 L 7.757812 -2.96875 L 7.898438 -2.585938 L 8.464844 -1.574219 L 8.730469 -1.191406 L 8.910156 -0.847656 L 9.152344 -0.523438 L 9.558594 -0.160156 L 10.0625 -0.0390625 L 10.789062 0 L 11.234375 -0.0390625 L 11.636719 0 L 12.445312 0 L 12.890625 -0.0390625 L 13.316406 -0.140625 L 13.394531 -0.566406 L 13.132812 -1.070312 L 12.488281 -2.0625 L 12.304688 -2.40625 L 12.0625 -2.769531 L 11.859375 -3.132812 L 11.597656 -3.453125 L 10.992188 -4.503906 L 10.929688 -4.992188 L 11.152344 -5.414062 L 11.71875 -5.960938 L 11.960938 -6.304688 L 12.101562 -6.6875 L 12.324219 -7.050781 L 12.464844 -7.394531 L 12.6875 -8.164062 L 12.707031 -9.757812 L 12.609375 -10.144531 L 12.546875 -10.527344 L 12.445312 -10.929688 L 11.902344 -12.042969 L 11.617188 -12.34375 L 11.4375 -12.648438 L 10.425781 -13.417969 L 9.71875 -13.78125 L 8.042969 -14.125 L 7.535156 -14.164062 L 6.949219 -14.144531 L 6.507812 -14.164062 L 6.101562 -14.125 L 5.65625 -14.164062 L 5.3125 -14.125 L 4.101562 -14.164062 L 3.71875 -14.101562 L 2.890625 -14.183594 L 2.503906 -14.125 L 2.0625 -14.144531 L 1.675781 -13.960938 L 1.515625 -13.539062 L 1.453125 -7.878906 L 1.515625 -7.292969 L 1.515625 -6.285156 L 1.476562 -5.859375 L 1.453125 -5.089844 L 1.515625 -4.648438 L 1.453125 -3.820312 L 1.535156 -2.648438 L 1.496094 -2.222656 Z M 5.675781 -7.433594 L 5.335938 -7.617188 L 5.132812 -8.042969 L 5.070312 -10.304688 L 5.3125 -10.707031 L 5.71875 -10.910156 L 6.042969 -10.929688 L 7.152344 -10.910156 L 8.082031 -10.789062 L 8.707031 -10.40625 L 8.910156 -10.101562 L 9.050781 -9.777344 L 9.09375 -9.191406 L 9.03125 -8.648438 L 8.871094 -8.242188 L 8.648438 -7.898438 L 8.40625 -7.65625 L 8.101562 -7.515625 L 6.527344 -7.375 L 6.121094 -7.433594 Z M 5.675781 -7.433594 "/></g></g></g><g fill="#ffffff" fill-opacity="1"><g transform="translate(171.788244, 41.583619)"><g><path d="M 0.96875 -0.585938 L 1.171875 -0.160156 L 1.574219 -0.0195312 L 7.578125 0.0195312 L 7.960938 -0.183594 L 8.183594 -0.546875 L 8.183594 -0.988281 L 8.144531 -1.355469 L 8.203125 -2.585938 L 7.921875 -2.929688 L 6.566406 -3.355469 L 6.34375 -3.757812 L 6.386719 -5.414062 L 6.304688 -6.222656 L 6.386719 -7.070312 L 6.34375 -7.679688 L 6.386719 -8.304688 L 6.34375 -8.6875 L 6.386719 -9.09375 L 6.34375 -9.515625 L 6.34375 -10.363281 L 6.566406 -10.730469 L 6.949219 -10.949219 L 7.394531 -10.972656 L 7.777344 -11.195312 L 8 -11.578125 L 8 -12.769531 L 8.042969 -13.132812 L 8 -13.539062 L 7.839844 -13.941406 L 7.191406 -14.125 L 4.625 -14.144531 L 4.183594 -14.101562 L 2.949219 -14.125 L 2.566406 -14.101562 L 1.777344 -14.144531 L 1.332031 -13.941406 L 1.109375 -13.515625 L 1.109375 -13.132812 L 1.070312 -12.789062 L 1.070312 -12.34375 L 1.109375 -11.941406 L 1.109375 -11.558594 L 1.3125 -11.171875 L 2.546875 -10.75 L 2.808594 -10.386719 L 2.746094 -8.667969 L 2.769531 -8.324219 L 2.828125 -7.859375 L 2.808594 -7.03125 L 2.769531 -6.628906 L 2.847656 -5.839844 L 2.746094 -5.433594 L 2.828125 -4.566406 L 2.789062 -3.777344 L 2.585938 -3.332031 L 1.253906 -2.910156 L 1.011719 -2.527344 L 0.96875 -2.140625 Z M 0.96875 -0.585938 "/></g></g></g><g fill="#ffffff" fill-opacity="1"><g transform="translate(180.960454, 41.583619)"><g><path d="M 1.476562 -0.605469 L 1.695312 -0.140625 L 2.082031 0.0390625 L 8.769531 -0.0390625 L 9.535156 -0.140625 L 10.203125 -0.402344 L 10.972656 -0.847656 L 11.234375 -1.050781 L 11.558594 -1.355469 L 12.023438 -2.019531 L 12.203125 -2.40625 L 12.285156 -2.746094 L 12.445312 -3.152344 L 12.464844 -4.769531 L 12.386719 -5.152344 L 12.246094 -5.578125 L 11.878906 -6.285156 L 11.597656 -6.628906 L 11.292969 -6.929688 L 11.113281 -7.375 L 11.195312 -7.777344 L 11.414062 -8.183594 L 11.660156 -8.527344 L 11.941406 -9.980469 L 11.921875 -10.566406 L 11.699219 -11.316406 L 11.496094 -11.699219 L 11.375 -12.082031 L 10.890625 -12.730469 L 10.609375 -13.011719 L 10 -13.4375 L 9.253906 -13.839844 L 8.121094 -14.101562 L 2.039062 -14.144531 L 1.636719 -13.960938 L 1.453125 -13.539062 L 1.496094 -12.667969 L 1.453125 -12.082031 L 1.535156 -10.730469 L 1.476562 -10.304688 L 1.515625 -9.878906 L 1.476562 -9.496094 L 1.496094 -9.070312 L 1.453125 -8.6875 L 1.453125 -7.070312 L 1.515625 -6.648438 L 1.476562 -6.261719 L 1.476562 -5.457031 L 1.515625 -5.070312 L 1.476562 -3.414062 L 1.535156 -2.585938 L 1.453125 -1.375 Z M 5.617188 -8.667969 L 5.132812 -8.828125 L 4.929688 -9.234375 L 5.011719 -9.578125 L 5.011719 -9.960938 L 4.96875 -10.34375 L 5.191406 -10.6875 L 5.617188 -10.910156 L 7.070312 -10.851562 L 7.699219 -10.730469 L 7.941406 -10.566406 L 8.203125 -10.285156 L 8.265625 -9.738281 L 8.164062 -9.132812 L 7.820312 -8.808594 L 7.132812 -8.667969 Z M 5.554688 -3.210938 L 5.210938 -3.375 L 4.992188 -3.796875 L 5.011719 -4.140625 L 4.96875 -4.527344 L 4.992188 -4.929688 L 5.132812 -5.292969 L 5.535156 -5.496094 L 7.679688 -5.496094 L 8.242188 -5.394531 L 8.546875 -5.171875 L 8.851562 -4.890625 L 8.890625 -4.324219 L 8.851562 -3.796875 L 8.585938 -3.515625 L 8.222656 -3.292969 L 7.132812 -3.191406 Z M 5.554688 -3.210938 "/></g></g></g><g fill="#ffffff" fill-opacity="1"><g transform="translate(194.294514, 41.583619)"><g><path d="M 1.453125 -0.585938 L 1.71875 -0.203125 L 2.101562 0.0195312 L 6.667969 -0.0195312 L 7.03125 0.0390625 L 8.265625 -0.0195312 L 9.496094 0.0625 L 9.878906 0.0195312 L 10.304688 -0.183594 L 10.488281 -0.566406 L 10.527344 -0.949219 L 10.507812 -2.203125 L 10.546875 -2.585938 L 10.285156 -2.992188 L 9.679688 -3.191406 L 7.011719 -3.234375 L 6.628906 -3.171875 L 6.183594 -3.210938 L 5.738281 -3.171875 L 5.3125 -3.414062 L 5.132812 -4.039062 L 5.152344 -5.03125 L 5.335938 -5.457031 L 5.699219 -5.675781 L 6.484375 -5.675781 L 6.890625 -5.71875 L 7.960938 -5.65625 L 8.507812 -5.699219 L 8.929688 -5.65625 L 9.292969 -5.675781 L 9.699219 -5.898438 L 9.902344 -6.285156 L 9.941406 -7.878906 L 9.902344 -8.285156 L 9.71875 -8.667969 L 9.375 -8.890625 L 8.566406 -8.910156 L 8.164062 -8.871094 L 7.738281 -8.871094 L 7.273438 -8.910156 L 5.675781 -8.890625 L 5.335938 -9.113281 L 5.089844 -9.476562 L 5.050781 -10.101562 L 5.253906 -10.6875 L 5.878906 -10.871094 L 9.757812 -10.890625 L 10.183594 -11.113281 L 10.40625 -11.476562 L 10.363281 -12.304688 L 10.304688 -12.6875 L 10.324219 -13.132812 L 10.386719 -13.515625 L 10.183594 -13.921875 L 9.757812 -14.101562 L 8.144531 -14.125 L 7.777344 -14.082031 L 7.375 -14.144531 L 6.484375 -14.101562 L 6.082031 -14.144531 L 5.292969 -14.125 L 4.929688 -14.164062 L 2.28125 -14.101562 L 1.695312 -13.960938 L 1.496094 -13.515625 L 1.535156 -12.707031 L 1.453125 -12.121094 L 1.535156 -11.09375 L 1.496094 -10.667969 L 1.535156 -10.304688 L 1.535156 -6.6875 L 1.476562 -6.261719 L 1.535156 -5.476562 L 1.496094 -4.667969 L 1.554688 -4.242188 L 1.515625 -3.796875 L 1.535156 -3.414062 L 1.476562 -3.050781 L 1.515625 -2.585938 L 1.515625 -2.183594 L 1.554688 -1.394531 L 1.535156 -0.988281 Z M 1.453125 -0.585938 "/></g></g></g><g clip-path="url(#71ad4da81c)"><path fill="#a6a6a6" d="M 120 33.480469 C 111.714844 33.480469 105 40.199219 105 48.480469 C 105 56.765625 111.714844 63.480469 120 63.480469 C 128.285156 63.480469 135 56.765625 135 48.480469 C 135 40.199219 128.285156 33.480469 120 33.480469 Z M 128.722656 48.90625 C 128.292969 49.332031 127.664062 49.433594 127.140625 49.207031 L 127.140625 54.894531 C 127.140625 56.078125 126.183594 57.035156 125 57.035156 L 115 57.035156 C 113.816406 57.035156 112.859375 56.078125 112.859375 54.894531 L 112.859375 49.207031 C 112.335938 49.433594 111.707031 49.332031 111.277344 48.90625 C 110.71875 48.347656 110.71875 47.445312 111.277344 46.886719 L 118.988281 39.175781 C 119.546875 38.617188 120.453125 38.617188 121.011719 39.175781 L 128.722656 46.886719 C 129.28125 47.445312 129.28125 48.347656 128.722656 48.90625 Z M 128.722656 48.90625 " fill-opacity="1" fill-rule="nonzero"/></g><path fill="#a6a6a6" d="M 121.785156 49.179688 L 118.214844 49.179688 C 117.820312 49.179688 117.5 49.5 117.5 49.894531 L 117.5 54.179688 C 117.5 54.574219 117.820312 54.894531 118.214844 54.894531 L 121.785156 54.894531 C 122.179688 54.894531 122.5 54.574219 122.5 54.179688 L 122.5 49.894531 C 122.5 49.5 122.179688 49.179688 121.785156 49.179688 Z M 121.785156 49.179688 " fill-opacity="1" fill-rule="nonzero"/></svg>