<svg xmlns="http://www.w3.org/2000/svg" xmlns:xlink="http://www.w3.org/1999/xlink" width="320" zoomAndPan="magnify" viewBox="0 0 240 74.999997" height="100" preserveAspectRatio="xMidYMid meet" version="1.0"><defs><g/><clipPath id="7919677aa7"><path d="M 28 18.332031 L 60.867188 18.332031 L 60.867188 48.332031 L 28 48.332031 Z M 28 18.332031 " clip-rule="nonzero"/></clipPath><clipPath id="f0f3a80cf7"><path d="M 73.125 21.480469 L 166.875 21.480469 L 166.875 51.480469 L 73.125 51.480469 Z M 73.125 21.480469 " clip-rule="nonzero"/></clipPath><clipPath id="9c5b3ac2ab"><path d="M 73.125 21.480469 L 166.875 21.480469 L 166.875 49 L 73.125 49 Z M 73.125 21.480469 " clip-rule="nonzero"/></clipPath></defs><g fill="#ffffff" fill-opacity="1"><g transform="translate(68.110825, 40.458619)"><g><path d="M 7.03125 0.160156 L 8.042969 0.242188 L 9.457031 0.140625 L 10.648438 -0.101562 L 11.011719 -0.304688 L 11.4375 -0.445312 L 11.78125 -0.605469 L 12.769531 -1.3125 L 13.335938 -1.878906 L 13.800781 -2.484375 L 14.222656 -3.210938 L 14.75 -4.75 L 14.628906 -5.113281 L 14.222656 -5.375 L 13.09375 -5.292969 L 12.6875 -5.355469 L 12.285156 -5.335938 L 11.878906 -5.355469 L 11.414062 -5.113281 L 11.09375 -4.789062 L 10.890625 -4.40625 L 10.425781 -3.878906 L 10.101562 -3.597656 L 9.800781 -3.476562 L 9.09375 -3.089844 L 8.019531 -3.03125 L 7.433594 -3.089844 L 6.707031 -3.355469 L 6 -3.71875 L 5.414062 -4.242188 L 4.96875 -4.949219 L 4.828125 -5.355469 L 4.6875 -5.636719 L 4.585938 -6 L 4.527344 -6.445312 L 4.527344 -7.679688 L 4.667969 -8.484375 L 4.96875 -9.214844 L 5.171875 -9.597656 L 5.65625 -10.164062 L 6.140625 -10.546875 L 6.6875 -10.851562 L 8.042969 -11.03125 L 8.910156 -10.992188 L 9.535156 -10.808594 L 9.902344 -10.667969 L 10.183594 -10.445312 L 10.769531 -9.859375 L 10.992188 -9.558594 L 11.375 -9.171875 L 11.839844 -8.949219 L 12.203125 -8.992188 L 12.628906 -8.972656 L 13.03125 -8.992188 L 13.597656 -8.929688 L 14.203125 -8.992188 L 14.546875 -9.152344 L 14.6875 -9.558594 L 14.566406 -10 L 14.425781 -10.363281 L 14.304688 -10.789062 L 14.082031 -11.113281 L 13.902344 -11.4375 L 13.617188 -11.78125 L 13.394531 -12.164062 L 12.832031 -12.75 L 11.457031 -13.617188 L 9.515625 -14.265625 L 9.132812 -14.285156 L 8.730469 -14.34375 L 7.476562 -14.367188 L 5.515625 -13.980469 L 4.019531 -13.273438 L 3.433594 -12.832031 L 2.566406 -12.042969 L 2.019531 -11.355469 L 1.636719 -10.769531 L 1.132812 -9.636719 L 0.929688 -8.808594 L 0.726562 -7.070312 L 0.847656 -5.597656 L 1.132812 -4.445312 L 2 -2.6875 L 2.828125 -1.796875 L 3.738281 -1.011719 L 4.605469 -0.546875 L 5.515625 -0.160156 L 5.878906 -0.0820312 L 6.285156 0.0625 L 6.648438 0.140625 Z M 7.03125 0.160156 "/></g></g></g><g fill="#ffffff" fill-opacity="1"><g transform="translate(83.525798, 40.458619)"><g><path d="M 1.554688 -0.648438 L 1.695312 -0.203125 L 2.101562 0 L 2.484375 0.0195312 L 3.3125 -0.0390625 L 3.738281 0 L 4.34375 0 L 4.96875 -0.203125 L 5.113281 -0.585938 L 5.152344 -1.011719 L 5.070312 -1.433594 L 5.132812 -2.304688 L 5.089844 -3.554688 L 5.273438 -3.960938 L 5.675781 -4.164062 L 6.042969 -4.164062 L 6.40625 -4.183594 L 6.910156 -4.019531 L 7.234375 -3.675781 L 7.757812 -2.96875 L 7.898438 -2.585938 L 8.464844 -1.574219 L 8.730469 -1.191406 L 8.910156 -0.847656 L 9.152344 -0.523438 L 9.558594 -0.160156 L 10.0625 -0.0390625 L 10.789062 0 L 11.234375 -0.0390625 L 11.636719 0 L 12.445312 0 L 12.890625 -0.0390625 L 13.316406 -0.140625 L 13.394531 -0.566406 L 13.132812 -1.070312 L 12.488281 -2.0625 L 12.304688 -2.40625 L 12.0625 -2.769531 L 11.859375 -3.132812 L 11.597656 -3.453125 L 10.992188 -4.503906 L 10.929688 -4.992188 L 11.152344 -5.414062 L 11.71875 -5.960938 L 11.960938 -6.304688 L 12.101562 -6.6875 L 12.324219 -7.050781 L 12.464844 -7.394531 L 12.6875 -8.164062 L 12.707031 -9.757812 L 12.609375 -10.144531 L 12.546875 -10.527344 L 12.445312 -10.929688 L 11.902344 -12.042969 L 11.617188 -12.34375 L 11.4375 -12.648438 L 10.425781 -13.417969 L 9.71875 -13.78125 L 8.042969 -14.125 L 7.535156 -14.164062 L 6.949219 -14.144531 L 6.507812 -14.164062 L 6.101562 -14.125 L 5.65625 -14.164062 L 5.3125 -14.125 L 4.101562 -14.164062 L 3.71875 -14.101562 L 2.890625 -14.183594 L 2.503906 -14.125 L 2.0625 -14.144531 L 1.675781 -13.960938 L 1.515625 -13.539062 L 1.453125 -7.878906 L 1.515625 -7.292969 L 1.515625 -6.285156 L 1.476562 -5.859375 L 1.453125 -5.089844 L 1.515625 -4.648438 L 1.453125 -3.820312 L 1.535156 -2.648438 L 1.496094 -2.222656 Z M 5.675781 -7.433594 L 5.335938 -7.617188 L 5.132812 -8.042969 L 5.070312 -10.304688 L 5.3125 -10.707031 L 5.71875 -10.910156 L 6.042969 -10.929688 L 7.152344 -10.910156 L 8.082031 -10.789062 L 8.707031 -10.40625 L 8.910156 -10.101562 L 9.050781 -9.777344 L 9.09375 -9.191406 L 9.03125 -8.648438 L 8.871094 -8.242188 L 8.648438 -7.898438 L 8.40625 -7.65625 L 8.101562 -7.515625 L 6.527344 -7.375 L 6.121094 -7.433594 Z M 5.675781 -7.433594 "/></g></g></g><g fill="#ffffff" fill-opacity="1"><g transform="translate(97.526556, 40.458619)"><g><path d="M 1.453125 -0.585938 L 1.71875 -0.203125 L 2.101562 0.0195312 L 6.667969 -0.0195312 L 7.03125 0.0390625 L 8.265625 -0.0195312 L 9.496094 0.0625 L 9.878906 0.0195312 L 10.304688 -0.183594 L 10.488281 -0.566406 L 10.527344 -0.949219 L 10.507812 -2.203125 L 10.546875 -2.585938 L 10.285156 -2.992188 L 9.679688 -3.191406 L 7.011719 -3.234375 L 6.628906 -3.171875 L 6.183594 -3.210938 L 5.738281 -3.171875 L 5.3125 -3.414062 L 5.132812 -4.039062 L 5.152344 -5.03125 L 5.335938 -5.457031 L 5.699219 -5.675781 L 6.484375 -5.675781 L 6.890625 -5.71875 L 7.960938 -5.65625 L 8.507812 -5.699219 L 8.929688 -5.65625 L 9.292969 -5.675781 L 9.699219 -5.898438 L 9.902344 -6.285156 L 9.941406 -7.878906 L 9.902344 -8.285156 L 9.71875 -8.667969 L 9.375 -8.890625 L 8.566406 -8.910156 L 8.164062 -8.871094 L 7.738281 -8.871094 L 7.273438 -8.910156 L 5.675781 -8.890625 L 5.335938 -9.113281 L 5.089844 -9.476562 L 5.050781 -10.101562 L 5.253906 -10.6875 L 5.878906 -10.871094 L 9.757812 -10.890625 L 10.183594 -11.113281 L 10.40625 -11.476562 L 10.363281 -12.304688 L 10.304688 -12.6875 L 10.324219 -13.132812 L 10.386719 -13.515625 L 10.183594 -13.921875 L 9.757812 -14.101562 L 8.144531 -14.125 L 7.777344 -14.082031 L 7.375 -14.144531 L 6.484375 -14.101562 L 6.082031 -14.144531 L 5.292969 -14.125 L 4.929688 -14.164062 L 2.28125 -14.101562 L 1.695312 -13.960938 L 1.496094 -13.515625 L 1.535156 -12.707031 L 1.453125 -12.121094 L 1.535156 -11.09375 L 1.496094 -10.667969 L 1.535156 -10.304688 L 1.535156 -6.6875 L 1.476562 -6.261719 L 1.535156 -5.476562 L 1.496094 -4.667969 L 1.554688 -4.242188 L 1.515625 -3.796875 L 1.535156 -3.414062 L 1.476562 -3.050781 L 1.515625 -2.585938 L 1.515625 -2.183594 L 1.554688 -1.394531 L 1.535156 -0.988281 Z M 1.453125 -0.585938 "/></g></g></g><g fill="#ffffff" fill-opacity="1"><g transform="translate(109.102941, 40.458619)"><g><path d="M 0.261719 -0.546875 L 0.363281 -0.121094 L 0.769531 -0.0195312 L 2.546875 -0.0195312 L 3.070312 0.0390625 L 3.535156 -0.160156 L 3.898438 -0.523438 L 4.242188 -1.210938 L 4.585938 -1.597656 L 5.070312 -1.796875 L 5.476562 -1.757812 L 6.605469 -1.777344 L 7.03125 -1.71875 L 7.496094 -1.777344 L 7.859375 -1.777344 L 8.285156 -1.738281 L 9.234375 -1.777344 L 9.902344 -1.554688 L 10.324219 -1.234375 L 10.425781 -0.867188 L 10.648438 -0.503906 L 10.992188 -0.183594 L 11.515625 0.0195312 L 11.878906 -0.0195312 L 12.585938 0.0390625 L 13.839844 0 L 14.203125 -0.121094 L 14.285156 -0.546875 L 14.164062 -1.050781 L 14.023438 -1.414062 L 13.757812 -1.757812 L 13.636719 -2.160156 L 13.4375 -2.464844 L 13.316406 -2.847656 L 12.972656 -3.578125 L 12.832031 -3.960938 L 12.628906 -4.304688 L 12.34375 -5.050781 L 12.121094 -5.375 L 11.960938 -5.777344 L 11.78125 -6.121094 L 11.636719 -6.527344 L 11.457031 -6.828125 L 11.335938 -7.234375 L 11.113281 -7.597656 L 10.949219 -7.941406 L 10.75 -8.285156 L 10.648438 -8.667969 L 10.242188 -9.375 L 10.121094 -9.757812 L 9.757812 -10.527344 L 9.65625 -10.851562 L 9.355469 -11.558594 L 8.949219 -12.304688 L 8.628906 -13.074219 L 8.445312 -13.375 L 8.324219 -13.757812 L 7.960938 -14.144531 L 7.273438 -14.324219 L 6.628906 -14.125 L 6.242188 -13.757812 L 6.121094 -13.394531 L 5.253906 -11.578125 L 5.03125 -11.214844 L 3.898438 -8.667969 L 3.796875 -8.324219 L 3.578125 -7.960938 L 3.253906 -7.234375 L 2.949219 -6.707031 L 2.808594 -6.324219 L 2.527344 -5.800781 L 2.40625 -5.375 L 2.222656 -5.050781 L 2.082031 -4.648438 L 1.515625 -3.597656 L 0.929688 -2.121094 L 0.6875 -1.796875 L 0.503906 -1.394531 Z M 6.507812 -4.992188 L 6.121094 -5.152344 L 6.0625 -5.554688 L 6.871094 -7.394531 L 7.050781 -7.71875 L 7.3125 -7.921875 L 7.558594 -7.757812 L 7.820312 -6.972656 L 8.042969 -6.628906 L 8.121094 -6.304688 L 8.324219 -5.898438 L 8.464844 -5.535156 L 8.425781 -5.171875 L 8.082031 -5.011719 Z M 6.507812 -4.992188 "/></g></g></g><g fill="#ffffff" fill-opacity="1"><g transform="translate(123.770397, 40.458619)"><g><path d="M 3.878906 -0.625 L 4.039062 -0.203125 L 4.464844 0 L 4.847656 -0.0390625 L 5.253906 0 L 5.636719 -0.0390625 L 6.890625 -0.0390625 L 7.292969 -0.203125 L 7.457031 -0.605469 L 7.433594 -0.988281 L 7.476562 -1.453125 L 7.457031 -2.261719 L 7.394531 -2.605469 L 7.457031 -3.03125 L 7.496094 -4.261719 L 7.457031 -4.625 L 7.515625 -5.476562 L 7.433594 -9.496094 L 7.496094 -9.902344 L 7.457031 -10.34375 L 7.617188 -10.707031 L 8.0625 -10.890625 L 8.40625 -10.910156 L 8.808594 -10.890625 L 9.171875 -10.929688 L 10.285156 -10.910156 L 10.75 -11.09375 L 10.949219 -11.496094 L 10.910156 -11.921875 L 10.949219 -13.578125 L 10.75 -13.980469 L 10.34375 -14.183594 L 9.859375 -14.144531 L 9.535156 -14.183594 L 9.152344 -14.183594 L 8.707031 -14.125 L 8.304688 -14.125 L 7.898438 -14.164062 L 7.496094 -14.164062 L 7.03125 -14.101562 L 1.011719 -14.144531 L 0.566406 -13.941406 L 0.363281 -13.539062 L 0.34375 -11.515625 L 0.566406 -11.074219 L 0.96875 -10.871094 L 1.496094 -10.929688 L 3.292969 -10.910156 L 3.65625 -10.6875 L 3.859375 -10.304688 L 3.917969 -8.082031 L 3.859375 -7.457031 L 3.898438 -7.070312 L 3.859375 -6.667969 L 3.859375 -5.859375 L 3.917969 -5.273438 L 3.839844 -4.667969 L 3.859375 -4.261719 L 3.839844 -3.839844 L 3.898438 -2.605469 L 3.859375 -2.203125 Z M 3.878906 -0.625 "/></g></g></g><g fill="#ffffff" fill-opacity="1"><g transform="translate(135.063941, 40.458619)"><g><path d="M 1.453125 -0.585938 L 1.71875 -0.203125 L 2.101562 0.0195312 L 6.667969 -0.0195312 L 7.03125 0.0390625 L 8.265625 -0.0195312 L 9.496094 0.0625 L 9.878906 0.0195312 L 10.304688 -0.183594 L 10.488281 -0.566406 L 10.527344 -0.949219 L 10.507812 -2.203125 L 10.546875 -2.585938 L 10.285156 -2.992188 L 9.679688 -3.191406 L 7.011719 -3.234375 L 6.628906 -3.171875 L 6.183594 -3.210938 L 5.738281 -3.171875 L 5.3125 -3.414062 L 5.132812 -4.039062 L 5.152344 -5.03125 L 5.335938 -5.457031 L 5.699219 -5.675781 L 6.484375 -5.675781 L 6.890625 -5.71875 L 7.960938 -5.65625 L 8.507812 -5.699219 L 8.929688 -5.65625 L 9.292969 -5.675781 L 9.699219 -5.898438 L 9.902344 -6.285156 L 9.941406 -7.878906 L 9.902344 -8.285156 L 9.71875 -8.667969 L 9.375 -8.890625 L 8.566406 -8.910156 L 8.164062 -8.871094 L 7.738281 -8.871094 L 7.273438 -8.910156 L 5.675781 -8.890625 L 5.335938 -9.113281 L 5.089844 -9.476562 L 5.050781 -10.101562 L 5.253906 -10.6875 L 5.878906 -10.871094 L 9.757812 -10.890625 L 10.183594 -11.113281 L 10.40625 -11.476562 L 10.363281 -12.304688 L 10.304688 -12.6875 L 10.324219 -13.132812 L 10.386719 -13.515625 L 10.183594 -13.921875 L 9.757812 -14.101562 L 8.144531 -14.125 L 7.777344 -14.082031 L 7.375 -14.144531 L 6.484375 -14.101562 L 6.082031 -14.144531 L 5.292969 -14.125 L 4.929688 -14.164062 L 2.28125 -14.101562 L 1.695312 -13.960938 L 1.496094 -13.515625 L 1.535156 -12.707031 L 1.453125 -12.121094 L 1.535156 -11.09375 L 1.496094 -10.667969 L 1.535156 -10.304688 L 1.535156 -6.6875 L 1.476562 -6.261719 L 1.535156 -5.476562 L 1.496094 -4.667969 L 1.554688 -4.242188 L 1.515625 -3.796875 L 1.535156 -3.414062 L 1.476562 -3.050781 L 1.515625 -2.585938 L 1.515625 -2.183594 L 1.554688 -1.394531 L 1.535156 -0.988281 Z M 1.453125 -0.585938 "/></g></g></g><g fill="#ffffff" fill-opacity="1"><g transform="translate(146.640325, 40.458619)"><g/></g></g><g fill="#ffffff" fill-opacity="1"><g transform="translate(152.115373, 40.458619)"><g><path d="M 7.394531 0.242188 L 7.921875 0.261719 L 9.011719 0.160156 L 9.414062 0.0820312 L 9.800781 0.0625 L 10.144531 -0.0390625 L 11.636719 -0.6875 L 11.921875 -0.929688 L 12.585938 -1.355469 L 13.171875 -1.980469 L 13.820312 -2.929688 L 14.285156 -3.859375 L 14.546875 -4.726562 L 14.566406 -5.113281 L 14.6875 -5.515625 L 14.769531 -7.050781 L 14.710938 -7.457031 L 14.464844 -7.859375 L 13.878906 -8.042969 L 8.808594 -8.042969 L 8.183594 -7.820312 L 8 -7.433594 L 7.960938 -5.921875 L 8.042969 -5.535156 L 8.164062 -5.191406 L 8.546875 -5.011719 L 8.929688 -5.011719 L 9.292969 -4.96875 L 10.507812 -5.03125 L 10.789062 -4.808594 L 10.871094 -4.464844 L 10.707031 -4.140625 L 10.121094 -3.578125 L 9.800781 -3.414062 L 9.03125 -3.171875 L 8.628906 -3.113281 L 8.042969 -3.089844 L 7.414062 -3.132812 L 7.050781 -3.210938 L 6.6875 -3.355469 L 5.960938 -3.738281 L 5.355469 -4.222656 L 5.132812 -4.566406 L 4.96875 -4.910156 L 4.75 -5.273438 L 4.605469 -5.65625 L 4.484375 -7.679688 L 4.707031 -8.40625 L 4.789062 -8.808594 L 5.089844 -9.558594 L 5.617188 -10.121094 L 6.285156 -10.585938 L 6.628906 -10.75 L 7.414062 -11.011719 L 7.980469 -11.03125 L 9.03125 -10.910156 L 9.414062 -10.808594 L 10.425781 -10.183594 L 10.628906 -9.859375 L 11.074219 -9.535156 L 11.515625 -9.335938 L 13.496094 -9.335938 L 13.878906 -9.375 L 14.222656 -9.496094 L 14.367188 -9.941406 L 13.71875 -11.4375 L 13.4375 -11.71875 L 12.929688 -12.367188 L 12.34375 -12.953125 L 10.972656 -13.800781 L 10.527344 -13.921875 L 10.203125 -14.0625 L 9.800781 -14.125 L 9.355469 -14.246094 L 7.355469 -14.34375 L 6.121094 -14.144531 L 4.585938 -13.597656 L 4.222656 -13.417969 L 3.210938 -12.730469 L 2.605469 -12.164062 L 2.34375 -11.820312 L 2.140625 -11.496094 L 1.839844 -11.214844 L 1.617188 -10.828125 L 0.988281 -9.292969 L 0.96875 -8.929688 L 0.746094 -8.042969 L 0.789062 -7.03125 L 0.746094 -6.464844 L 0.769531 -6.042969 L 1.109375 -4.484375 L 1.535156 -3.375 L 1.757812 -2.992188 L 2.484375 -2.082031 L 3.050781 -1.496094 L 4.34375 -0.625 L 4.707031 -0.445312 L 5.839844 -0.0390625 L 6.972656 0.203125 Z M 7.394531 0.242188 "/></g></g></g><g fill="#ffffff" fill-opacity="1"><g transform="translate(167.590953, 40.458619)"><g><path d="M 0.261719 -0.546875 L 0.363281 -0.121094 L 0.769531 -0.0195312 L 2.546875 -0.0195312 L 3.070312 0.0390625 L 3.535156 -0.160156 L 3.898438 -0.523438 L 4.242188 -1.210938 L 4.585938 -1.597656 L 5.070312 -1.796875 L 5.476562 -1.757812 L 6.605469 -1.777344 L 7.03125 -1.71875 L 7.496094 -1.777344 L 7.859375 -1.777344 L 8.285156 -1.738281 L 9.234375 -1.777344 L 9.902344 -1.554688 L 10.324219 -1.234375 L 10.425781 -0.867188 L 10.648438 -0.503906 L 10.992188 -0.183594 L 11.515625 0.0195312 L 11.878906 -0.0195312 L 12.585938 0.0390625 L 13.839844 0 L 14.203125 -0.121094 L 14.285156 -0.546875 L 14.164062 -1.050781 L 14.023438 -1.414062 L 13.757812 -1.757812 L 13.636719 -2.160156 L 13.4375 -2.464844 L 13.316406 -2.847656 L 12.972656 -3.578125 L 12.832031 -3.960938 L 12.628906 -4.304688 L 12.34375 -5.050781 L 12.121094 -5.375 L 11.960938 -5.777344 L 11.78125 -6.121094 L 11.636719 -6.527344 L 11.457031 -6.828125 L 11.335938 -7.234375 L 11.113281 -7.597656 L 10.949219 -7.941406 L 10.75 -8.285156 L 10.648438 -8.667969 L 10.242188 -9.375 L 10.121094 -9.757812 L 9.757812 -10.527344 L 9.65625 -10.851562 L 9.355469 -11.558594 L 8.949219 -12.304688 L 8.628906 -13.074219 L 8.445312 -13.375 L 8.324219 -13.757812 L 7.960938 -14.144531 L 7.273438 -14.324219 L 6.628906 -14.125 L 6.242188 -13.757812 L 6.121094 -13.394531 L 5.253906 -11.578125 L 5.03125 -11.214844 L 3.898438 -8.667969 L 3.796875 -8.324219 L 3.578125 -7.960938 L 3.253906 -7.234375 L 2.949219 -6.707031 L 2.808594 -6.324219 L 2.527344 -5.800781 L 2.40625 -5.375 L 2.222656 -5.050781 L 2.082031 -4.648438 L 1.515625 -3.597656 L 0.929688 -2.121094 L 0.6875 -1.796875 L 0.503906 -1.394531 Z M 6.507812 -4.992188 L 6.121094 -5.152344 L 6.0625 -5.554688 L 6.871094 -7.394531 L 7.050781 -7.71875 L 7.3125 -7.921875 L 7.558594 -7.757812 L 7.820312 -6.972656 L 8.042969 -6.628906 L 8.121094 -6.304688 L 8.324219 -5.898438 L 8.464844 -5.535156 L 8.425781 -5.171875 L 8.082031 -5.011719 Z M 6.507812 -4.992188 "/></g></g></g><g fill="#ffffff" fill-opacity="1"><g transform="translate(182.25841, 40.458619)"><g><path d="M 1.496094 -0.585938 L 1.675781 -0.222656 L 2.160156 0 L 4.382812 -0.0390625 L 4.992188 -0.222656 L 5.210938 -0.546875 L 5.253906 -0.929688 L 5.234375 -1.355469 L 5.171875 -1.777344 L 5.234375 -4.503906 L 5.152344 -5.675781 L 5.335938 -5.960938 L 5.636719 -5.878906 L 6.140625 -5.253906 L 7.273438 -4.183594 L 7.535156 -3.839844 L 8.203125 -3.292969 L 8.667969 -3.292969 L 9.011719 -3.535156 L 10.707031 -5.253906 L 10.972656 -5.597656 L 11.253906 -5.878906 L 11.496094 -5.921875 L 11.660156 -5.675781 L 11.71875 -5.273438 L 11.660156 -4.890625 L 11.679688 -4.527344 L 11.660156 -4.121094 L 11.71875 -3.375 L 11.660156 -0.585938 L 11.859375 -0.160156 L 12.304688 0 L 14.730469 0.0195312 L 15.113281 -0.222656 L 15.335938 -0.648438 L 15.394531 -1.050781 L 15.316406 -3.476562 L 15.355469 -3.859375 L 15.316406 -4.648438 L 15.375 -5.050781 L 15.355469 -5.457031 L 15.394531 -5.878906 L 15.355469 -6.285156 L 15.417969 -6.648438 L 15.355469 -12.367188 L 15.394531 -12.789062 L 15.355469 -13.132812 L 15.375 -13.558594 L 15.152344 -13.941406 L 14.75 -14.183594 L 14.144531 -14.003906 L 13.636719 -13.71875 L 13.171875 -13.152344 L 12.023438 -11.960938 L 11.839844 -11.660156 L 8.851562 -8.484375 L 8.40625 -8.34375 L 8.042969 -8.464844 L 7.777344 -8.730469 L 7.535156 -9.070312 L 7.214844 -9.335938 L 6.972656 -9.65625 L 5.578125 -11.09375 L 5.089844 -11.699219 L 4.75 -12 L 4.484375 -12.285156 L 4.261719 -12.585938 L 3.980469 -12.851562 L 3.757812 -13.132812 L 3.3125 -13.597656 L 2.726562 -14.023438 L 2.140625 -14.183594 L 1.738281 -13.960938 L 1.515625 -13.558594 L 1.476562 -13.132812 L 1.535156 -4.222656 L 1.453125 -3.839844 L 1.535156 -0.96875 Z M 1.496094 -0.585938 "/></g></g></g><g fill="#ffffff" fill-opacity="1"><g transform="translate(199.148217, 40.458619)"><g><path d="M 1.453125 -0.585938 L 1.71875 -0.203125 L 2.101562 0.0195312 L 6.667969 -0.0195312 L 7.03125 0.0390625 L 8.265625 -0.0195312 L 9.496094 0.0625 L 9.878906 0.0195312 L 10.304688 -0.183594 L 10.488281 -0.566406 L 10.527344 -0.949219 L 10.507812 -2.203125 L 10.546875 -2.585938 L 10.285156 -2.992188 L 9.679688 -3.191406 L 7.011719 -3.234375 L 6.628906 -3.171875 L 6.183594 -3.210938 L 5.738281 -3.171875 L 5.3125 -3.414062 L 5.132812 -4.039062 L 5.152344 -5.03125 L 5.335938 -5.457031 L 5.699219 -5.675781 L 6.484375 -5.675781 L 6.890625 -5.71875 L 7.960938 -5.65625 L 8.507812 -5.699219 L 8.929688 -5.65625 L 9.292969 -5.675781 L 9.699219 -5.898438 L 9.902344 -6.285156 L 9.941406 -7.878906 L 9.902344 -8.285156 L 9.71875 -8.667969 L 9.375 -8.890625 L 8.566406 -8.910156 L 8.164062 -8.871094 L 7.738281 -8.871094 L 7.273438 -8.910156 L 5.675781 -8.890625 L 5.335938 -9.113281 L 5.089844 -9.476562 L 5.050781 -10.101562 L 5.253906 -10.6875 L 5.878906 -10.871094 L 9.757812 -10.890625 L 10.183594 -11.113281 L 10.40625 -11.476562 L 10.363281 -12.304688 L 10.304688 -12.6875 L 10.324219 -13.132812 L 10.386719 -13.515625 L 10.183594 -13.921875 L 9.757812 -14.101562 L 8.144531 -14.125 L 7.777344 -14.082031 L 7.375 -14.144531 L 6.484375 -14.101562 L 6.082031 -14.144531 L 5.292969 -14.125 L 4.929688 -14.164062 L 2.28125 -14.101562 L 1.695312 -13.960938 L 1.496094 -13.515625 L 1.535156 -12.707031 L 1.453125 -12.121094 L 1.535156 -11.09375 L 1.496094 -10.667969 L 1.535156 -10.304688 L 1.535156 -6.6875 L 1.476562 -6.261719 L 1.535156 -5.476562 L 1.496094 -4.667969 L 1.554688 -4.242188 L 1.515625 -3.796875 L 1.535156 -3.414062 L 1.476562 -3.050781 L 1.515625 -2.585938 L 1.515625 -2.183594 L 1.554688 -1.394531 L 1.535156 -0.988281 Z M 1.453125 -0.585938 "/></g></g></g><g clip-path="url(#7919677aa7)"><path fill="#ffffff" d="M 33.929688 19.769531 L 43.097656 28.859375 L 45.9375 31.675781 C 46.953125 32.683594 46.953125 34.320312 45.9375 35.324219 L 43.097656 38.144531 L 33.851562 47.3125 C 33.195312 47.964844 32.359375 48.277344 31.507812 48.277344 C 30.652344 48.277344 29.796875 47.964844 29.160156 47.3125 C 27.867188 46.011719 27.949219 43.882812 29.238281 42.601562 L 38.382812 33.53125 L 38.382812 33.511719 L 29.160156 24.363281 C 28.503906 23.710938 28.1875 22.882812 28.1875 22.035156 C 28.1875 21.1875 28.523438 20.339844 29.179688 19.6875 C 30.492188 18.386719 32.640625 18.46875 33.929688 19.769531 Z M 47.847656 19.769531 L 57.011719 28.859375 L 59.855469 31.675781 C 60.867188 32.683594 60.867188 34.320312 59.855469 35.324219 L 57.011719 38.144531 L 47.765625 47.3125 C 47.113281 47.964844 46.277344 48.277344 45.421875 48.277344 C 44.566406 48.277344 43.710938 47.964844 43.074219 47.3125 C 41.785156 46.011719 41.863281 43.882812 43.15625 42.601562 L 52.300781 33.53125 L 52.300781 33.511719 L 43.074219 24.363281 C 42.441406 23.710938 42.101562 22.882812 42.101562 22.035156 C 42.101562 21.1875 42.441406 20.339844 43.097656 19.6875 C 44.40625 18.386719 46.554688 18.46875 47.847656 19.769531 Z M 47.847656 19.769531 " fill-opacity="1" fill-rule="nonzero"/></g><g clip-path="url(#f0f3a80cf7)"><path fill="#a6a6a6" d="M 166.875 35 L 166.875 37.8125 C 166.875 45.347656 160.742188 51.480469 153.207031 51.480469 L 86.792969 51.480469 C 79.238281 51.480469 73.125 45.347656 73.125 37.8125 L 73.125 35 C 73.21875 27.515625 79.292969 21.480469 86.792969 21.480469 L 153.207031 21.480469 C 160.707031 21.480469 166.820312 27.515625 166.875 35 Z M 166.875 35 L 166.875 37.8125 C 166.875 45.347656 160.742188 51.480469 153.207031 51.480469 L 86.792969 51.480469 C 79.238281 51.480469 73.125 45.347656 73.125 37.8125 L 73.125 35 C 73.21875 27.515625 79.292969 21.480469 86.792969 21.480469 L 153.207031 21.480469 C 160.707031 21.480469 166.820312 27.515625 166.875 35 Z M 166.875 35 " fill-opacity="1" fill-rule="nonzero"/></g><g clip-path="url(#9c5b3ac2ab)"><path fill="#ffffff" d="M 153.207031 23.375 C 159.695312 23.375 164.980469 28.660156 164.980469 35.148438 C 164.980469 41.636719 159.695312 46.921875 153.207031 46.921875 L 86.773438 46.921875 C 80.289062 46.90625 75.019531 41.636719 75.019531 35.148438 C 75.019531 28.660156 80.289062 23.375 86.773438 23.375 L 153.207031 23.375 M 153.207031 21.480469 L 86.792969 21.480469 C 79.238281 21.480469 73.125 27.59375 73.125 35.148438 C 73.125 42.703125 79.238281 48.816406 86.792969 48.816406 L 153.207031 48.816406 C 160.742188 48.816406 166.875 42.703125 166.875 35.148438 C 166.875 27.59375 160.761719 21.480469 153.207031 21.480469 Z M 103.425781 39.949219 C 103.070312 39.742188 102.789062 39.460938 102.601562 39.105469 C 102.414062 38.75 102.300781 38.335938 102.300781 37.886719 L 102.300781 37.546875 L 103.6875 37.398438 L 103.6875 37.753906 C 103.6875 38.09375 103.78125 38.375 103.949219 38.578125 C 104.117188 38.785156 104.34375 38.878906 104.644531 38.878906 C 104.925781 38.878906 105.148438 38.785156 105.320312 38.617188 C 105.488281 38.449219 105.582031 38.242188 105.582031 37.941406 C 105.582031 37.625 105.488281 37.324219 105.300781 37.0625 C 105.132812 36.78125 104.773438 36.386719 104.25 35.878906 C 103.539062 35.203125 103.050781 34.640625 102.789062 34.191406 C 102.523438 33.742188 102.394531 33.253906 102.394531 32.710938 C 102.394531 32 102.582031 31.417969 102.992188 30.984375 C 103.386719 30.554688 103.929688 30.347656 104.625 30.347656 C 105.320312 30.347656 105.84375 30.554688 106.257812 31.003906 C 106.648438 31.4375 106.855469 32.015625 106.855469 32.730469 L 106.855469 32.992188 L 105.46875 33.140625 L 105.46875 32.859375 C 105.46875 32.503906 105.414062 32.203125 105.261719 32.015625 C 105.132812 31.828125 104.925781 31.71875 104.664062 31.71875 C 104.398438 31.71875 104.210938 31.8125 104.0625 31.941406 C 103.929688 32.09375 103.855469 32.316406 103.855469 32.636719 C 103.855469 32.9375 103.949219 33.234375 104.136719 33.5 C 104.324219 33.761719 104.664062 34.171875 105.1875 34.699219 C 105.898438 35.410156 106.386719 35.992188 106.648438 36.421875 C 106.914062 36.875 107.042969 37.324219 107.042969 37.867188 C 107.042969 38.335938 106.929688 38.730469 106.742188 39.085938 C 106.554688 39.441406 106.273438 39.722656 105.917969 39.929688 C 105.5625 40.136719 105.148438 40.230469 104.699219 40.230469 C 104.195312 40.25 103.761719 40.136719 103.425781 39.949219 Z M 109.78125 30.5 L 114.429688 30.5 L 114.429688 31.867188 L 112.835938 31.867188 L 112.835938 40.097656 L 111.375 40.097656 L 111.375 31.867188 L 109.78125 31.867188 Z M 119.90625 37.980469 L 118.351562 37.980469 L 118.03125 40.117188 L 116.570312 40.117188 L 118.164062 30.5 L 120.113281 30.5 L 121.707031 40.117188 L 120.226562 40.117188 Z M 119.699219 36.59375 L 119.101562 32.578125 L 118.5 36.59375 Z M 128.136719 40.117188 L 127.085938 36.140625 L 126.320312 36.140625 L 126.320312 40.117188 L 124.875 40.117188 L 124.875 30.5 L 127.164062 30.5 C 127.855469 30.5 128.398438 30.703125 128.832031 31.136719 C 129.261719 31.566406 129.449219 32.109375 129.449219 32.804688 L 129.449219 33.855469 C 129.449219 34.304688 129.355469 34.679688 129.1875 35.015625 C 129.019531 35.355469 128.757812 35.636719 128.457031 35.824219 L 129.675781 40.117188 Z M 126.335938 34.773438 L 127.105469 34.773438 C 127.386719 34.773438 127.613281 34.679688 127.761719 34.546875 C 127.914062 34.398438 127.988281 34.171875 127.988281 33.890625 L 127.988281 32.765625 C 127.988281 32.484375 127.894531 32.261719 127.761719 32.109375 C 127.632812 31.960938 127.386719 31.886719 127.105469 31.886719 L 126.335938 31.886719 Z M 132.414062 30.5 L 137.0625 30.5 L 137.0625 31.867188 L 135.46875 31.867188 L 135.46875 40.097656 L 134.007812 40.097656 L 134.007812 31.867188 L 132.414062 31.867188 Z M 132.414062 30.5 " fill-opacity="1" fill-rule="nonzero"/></g></svg>