<svg xmlns="http://www.w3.org/2000/svg" xmlns:xlink="http://www.w3.org/1999/xlink" width="320" zoomAndPan="magnify" viewBox="0 0 240 74.999997" height="100" preserveAspectRatio="xMidYMid meet" version="1.0"><defs><filter x="0%" y="0%" width="100%" height="100%" id="70fd5e2a22"><feColorMatrix values="0 0 0 0 1 0 0 0 0 1 0 0 0 0 1 0 0 0 1 0" color-interpolation-filters="sRGB"/></filter><filter x="0%" y="0%" width="100%" height="100%" id="0747bc2544"><feColorMatrix values="0 0 0 0 1 0 0 0 0 1 0 0 0 0 1 0 0 0 -1 1" color-interpolation-filters="sRGB"/></filter><filter x="0%" y="0%" width="100%" height="100%" id="10fe7c0587"><feImage x="0" y="0" result="source" width="345.6" xlink:href="#a406fc82c5" height="107.999996"/><feImage x="0" y="0" result="destination" width="345.6" xlink:href="#3a60ee2552" height="107.999996"/><feBlend in2="destination" mode="multiply" color-interpolation-filters="sRGB" in="source"/></filter><filter x="0%" y="0%" width="100%" height="100%" id="bd9ba083db"><feImage x="0" y="0" result="source" width="345.6" xlink:href="#107998276f" height="107.999996"/><feImage x="0" y="0" result="destination" width="345.6" xlink:href="#c2c0251c43" height="107.999996"/><feComposite color-interpolation-filters="sRGB" in="source" k1="0" k2="1" k3="1" k4="0" in2="destination" operator="arithmetic"/></filter><filter x="0%" y="0%" width="100%" height="100%" id="4f2d7a52f2"><feImage x="0" y="0" result="source" width="345.6" xlink:href="#6017200d4e" height="107.999996"/><feImage x="0" y="0" result="destination" width="345.6" xlink:href="#139ac20558" height="107.999996"/><feBlend in2="destination" mode="multiply" color-interpolation-filters="sRGB" in="source"/></filter><filter x="0%" y="0%" width="100%" height="100%" id="12532335db"><feImage x="0" y="0" result="source" width="345.6" xlink:href="#d7b0764493" height="107.999996"/><feImage x="0" y="0" result="destination" width="345.6" xlink:href="#14c3d736f5" height="107.999996"/><feComposite color-interpolation-filters="sRGB" in="source" k1="0" k2="1" k3="1" k4="0" in2="destination" operator="arithmetic"/></filter><g/><clipPath id="2edcf2f7ca"><path d="M 0 4 L 240 4 L 240 71.398438 L 0 71.398438 Z M 0 4 " clip-rule="nonzero"/></clipPath><mask id="e25abf8254"><g filter="url(#70fd5e2a22)"><rect x="-52.8" width="345.6" fill="#000000" y="-20.499999" height="107.999996" fill-opacity="0.349"/></g></mask><clipPath id="7b11c5e274"><path d="M 0 0 L 232.320312 0 L 232.320312 59.398438 L 0 59.398438 Z M 0 0 " clip-rule="nonzero"/></clipPath><clipPath id="5524930c1b"><rect x="0" width="233" y="0" height="60"/></clipPath><mask id="75a52261ec"><g><g transform="translate(52.8, 20.499999)"><rect x="-52.8" width="345.6" fill="#000000" height="107.999996" y="-20.499999" fill-opacity="0"/><clipPath id="bbc3364d25"><path d="M 0 8 L 233 8 L 233 67.398438 L 0 67.398438 Z M 0 8 " clip-rule="nonzero"/></clipPath><g clip-path="url(#bbc3364d25)"><rect x="-52.8" width="345.6" fill="#ffffff" height="107.999996" y="-20.499999" fill-opacity="1"/></g></g></g></mask><mask id="b31f186d04"><g filter="url(#0747bc2544)"><g transform="translate(52.8, 20.499999)"><rect x="-52.8" width="345.6" fill="#000000" height="107.999996" y="-20.499999" fill-opacity="0"/><g clip-path="url(#bbc3364d25)"><rect x="-52.8" width="345.6" fill="#ffffff" height="107.999996" y="-20.499999" fill-opacity="1"/></g></g></g></mask><mask id="bda9e1471f"><g transform="translate(52.8, 20.499999)"><g mask="url(#e25abf8254)"><rect x="-52.8" width="345.6" fill="#ffffff" y="-20.499999" height="107.999996" fill-opacity="1"/></g></g></mask><g id="a406fc82c5" mask="url(#bda9e1471f)"><g transform="translate(52.8, 20.499999)"><g transform="matrix(1, 0, 0, 1, 0, 8)"><g clip-path="url(#5524930c1b)"><g clip-path="url(#7b11c5e274)"><path fill="#fff6ea" d="M 22.894531 0.214844 L 209.148438 0.214844 C 209.898438 0.214844 210.648438 0.253906 211.394531 0.324219 C 212.140625 0.398438 212.878906 0.511719 213.617188 0.65625 C 214.351562 0.804688 215.078125 0.988281 215.796875 1.207031 C 216.511719 1.425781 217.21875 1.675781 217.910156 1.964844 C 218.605469 2.253906 219.28125 2.574219 219.941406 2.929688 C 220.605469 3.285156 221.246094 3.671875 221.871094 4.089844 C 222.492188 4.511719 223.09375 4.957031 223.675781 5.4375 C 224.253906 5.914062 224.808594 6.417969 225.339844 6.953125 C 225.871094 7.484375 226.371094 8.042969 226.847656 8.625 C 227.324219 9.207031 227.769531 9.8125 228.1875 10.4375 C 228.601562 11.0625 228.988281 11.707031 229.34375 12.371094 C 229.695312 13.039062 230.015625 13.71875 230.300781 14.414062 C 230.589844 15.109375 230.84375 15.816406 231.058594 16.539062 C 231.277344 17.257812 231.460938 17.988281 231.605469 18.726562 C 231.75 19.46875 231.863281 20.210938 231.933594 20.960938 C 232.007812 21.710938 232.046875 22.460938 232.046875 23.214844 L 232.046875 36.132812 C 232.046875 36.886719 232.007812 37.636719 231.933594 38.386719 C 231.863281 39.136719 231.75 39.878906 231.605469 40.621094 C 231.460938 41.359375 231.277344 42.089844 231.058594 42.808594 C 230.84375 43.53125 230.589844 44.238281 230.300781 44.933594 C 230.015625 45.628906 229.695312 46.308594 229.34375 46.976562 C 228.988281 47.640625 228.601562 48.285156 228.1875 48.910156 C 227.769531 49.535156 227.324219 50.140625 226.847656 50.722656 C 226.371094 51.304688 225.871094 51.863281 225.339844 52.394531 C 224.808594 52.929688 224.253906 53.433594 223.675781 53.910156 C 223.09375 54.390625 222.492188 54.835938 221.871094 55.257812 C 221.246094 55.675781 220.605469 56.0625 219.941406 56.417969 C 219.28125 56.773438 218.605469 57.09375 217.910156 57.382812 C 217.21875 57.671875 216.511719 57.921875 215.796875 58.140625 C 215.078125 58.359375 214.351562 58.542969 213.617188 58.691406 C 212.878906 58.835938 212.140625 58.949219 211.394531 59.023438 C 210.648438 59.09375 209.898438 59.132812 209.148438 59.132812 L 22.894531 59.132812 C 22.144531 59.132812 21.398438 59.09375 20.652344 59.023438 C 19.90625 58.949219 19.164062 58.835938 18.429688 58.691406 C 17.695312 58.542969 16.96875 58.359375 16.25 58.140625 C 15.53125 57.921875 14.828125 57.671875 14.132812 57.382812 C 13.441406 57.09375 12.765625 56.773438 12.101562 56.417969 C 11.441406 56.0625 10.800781 55.675781 10.175781 55.257812 C 9.550781 54.835938 8.949219 54.390625 8.371094 53.910156 C 7.792969 53.433594 7.238281 52.929688 6.707031 52.394531 C 6.175781 51.863281 5.671875 51.304688 5.195312 50.722656 C 4.722656 50.140625 4.273438 49.535156 3.859375 48.910156 C 3.441406 48.285156 3.058594 47.640625 2.703125 46.976562 C 2.351562 46.308594 2.03125 45.628906 1.742188 44.933594 C 1.457031 44.238281 1.203125 43.53125 0.984375 42.808594 C 0.769531 42.089844 0.585938 41.359375 0.441406 40.621094 C 0.292969 39.878906 0.183594 39.136719 0.109375 38.386719 C 0.0351562 37.636719 0 36.886719 0 36.132812 L 0 23.214844 C 0 22.460938 0.0351562 21.710938 0.109375 20.960938 C 0.183594 20.210938 0.292969 19.46875 0.441406 18.726562 C 0.585938 17.988281 0.769531 17.257812 0.984375 16.539062 C 1.203125 15.816406 1.457031 15.109375 1.742188 14.414062 C 2.03125 13.71875 2.351562 13.039062 2.703125 12.371094 C 3.058594 11.707031 3.441406 11.0625 3.859375 10.4375 C 4.273438 9.8125 4.722656 9.207031 5.195312 8.625 C 5.671875 8.042969 6.175781 7.484375 6.707031 6.953125 C 7.238281 6.417969 7.792969 5.914062 8.371094 5.4375 C 8.949219 4.957031 9.550781 4.511719 10.175781 4.089844 C 10.800781 3.671875 11.441406 3.285156 12.101562 2.929688 C 12.765625 2.574219 13.441406 2.253906 14.132812 1.964844 C 14.828125 1.675781 15.53125 1.425781 16.25 1.207031 C 16.96875 0.988281 17.695312 0.804688 18.429688 0.65625 C 19.164062 0.511719 19.90625 0.398438 20.652344 0.324219 C 21.398438 0.253906 22.144531 0.214844 22.894531 0.214844 Z M 22.894531 0.214844 " fill-opacity="1" fill-rule="nonzero"/></g></g></g></g></g><g id="3a60ee2552" transform="translate(52.8, 20.499999)"/><g id="107998276f" mask="url(#75a52261ec)" filter="url(#10fe7c0587)"><rect x="0" width="345.6" fill="#000000" y="0" height="107.999996" fill-opacity="1"/></g><g id="c2c0251c43" mask="url(#b31f186d04)"><g><g transform="translate(52.8, 20.499999)"/></g></g><clipPath id="819213e618"><path d="M 7 0.078125 L 240 0.078125 L 240 60 L 7 60 Z M 7 0.078125 " clip-rule="nonzero"/></clipPath><mask id="3613f09932"><g filter="url(#70fd5e2a22)"><rect x="-52.8" width="345.6" fill="#000000" y="-20.499999" height="107.999996" fill-opacity="0.498"/></g></mask><clipPath id="3600e31ba1"><path d="M 0.878906 0.441406 L 228.878906 0.441406 L 228.878906 55.640625 L 0.878906 55.640625 Z M 0.878906 0.441406 " clip-rule="nonzero"/></clipPath><clipPath id="26e95e3fd0"><rect x="0" width="229" y="0" height="56"/></clipPath><mask id="0f46927a87"><g><g transform="translate(52.8, 20.499999)"><rect x="-52.8" width="345.6" fill="#000000" height="107.999996" y="-20.499999" fill-opacity="0"/><rect x="-52.8" width="345.6" fill="#ffffff" height="107.999996" y="-20.499999" fill-opacity="1"/></g></g></mask><mask id="abeaa3d448"><g filter="url(#0747bc2544)"><g transform="translate(52.8, 20.499999)"><rect x="-52.8" width="345.6" fill="#000000" height="107.999996" y="-20.499999" fill-opacity="0"/><rect x="-52.8" width="345.6" fill="#ffffff" height="107.999996" y="-20.499999" fill-opacity="1"/></g></g></mask><mask id="5120eeb4f7"><g transform="translate(52.8, 20.499999)"><g mask="url(#3613f09932)"><rect x="-52.8" width="345.6" fill="#ffffff" y="-20.499999" height="107.999996" fill-opacity="1"/></g></g></mask><g id="6017200d4e" mask="url(#5120eeb4f7)"><g transform="translate(52.8, 20.499999)"><g transform="matrix(1, 0, 0, 1, 8, 3)"><g clip-path="url(#26e95e3fd0)"><g clip-path="url(#3600e31ba1)"><path stroke-linecap="butt" transform="matrix(1.13798, 0, 0, 1.14314, -7.999995, -2.78685)" fill="none" stroke-linejoin="miter" d="M 26.118781 5.000732 L 189.789411 5.000732 C 190.318034 5.000732 190.843225 5.024652 191.368415 5.079326 C 191.897038 5.130583 192.415363 5.20576 192.933689 5.308273 C 193.452014 5.414204 193.963474 5.540638 194.468069 5.694408 C 194.976096 5.848179 195.470393 6.025869 195.957825 6.227479 C 196.445256 6.42909 196.92239 6.65462 197.389226 6.90407 C 197.856062 7.15352 198.305735 7.423472 198.74511 7.717345 C 199.184485 8.011218 199.606697 8.325593 200.015178 8.660471 C 200.42366 8.995349 200.814978 9.347313 201.189133 9.719779 C 201.563289 10.095662 201.916848 10.485214 202.249812 10.895269 C 202.586209 11.301907 202.898577 11.72563 203.193782 12.163022 C 203.485555 12.603831 203.756731 13.054891 204.007312 13.51962 C 204.254461 13.987765 204.481014 14.462746 204.683538 14.951394 C 204.886062 15.440043 205.061126 15.935526 205.215594 16.44126 C 205.370061 16.946994 205.497068 17.456145 205.600047 17.975548 C 205.703025 18.491533 205.781976 19.014353 205.833465 19.54059 C 205.884954 20.066827 205.908982 20.593064 205.908982 21.119301 L 205.908982 32.419726 C 205.908982 32.94938 205.884954 33.475617 205.833465 33.998437 C 205.781976 34.524674 205.703025 35.047494 205.600047 35.563479 C 205.497068 36.082882 205.370061 36.59545 205.215594 37.097768 C 205.061126 37.603502 204.886062 38.102402 204.683538 38.587633 C 204.481014 39.076282 204.254461 39.554679 204.007312 40.019408 C 203.756731 40.484136 203.485555 40.935197 203.193782 41.376005 C 202.898577 41.813397 202.586209 42.23712 202.249812 42.647175 C 201.916848 43.053813 201.563289 43.446782 201.189133 43.819248 C 200.814978 44.191715 200.42366 44.547095 200.015178 44.881973 C 199.606697 45.216851 199.184485 45.531227 198.74511 45.821682 C 198.305735 46.115555 197.856062 46.388925 197.389226 46.634957 C 196.92239 46.884407 196.445256 47.109938 195.957825 47.311548 C 195.470393 47.516575 194.976096 47.694266 194.468069 47.844619 C 193.963474 47.99839 193.452014 48.12824 192.933689 48.230754 C 192.415363 48.333268 191.897038 48.411861 191.368415 48.463118 C 190.843225 48.514375 190.318034 48.538295 189.789411 48.538295 L 26.118781 48.538295 C 25.593591 48.538295 25.064968 48.514375 24.539777 48.463118 C 24.014587 48.411861 23.492829 48.333268 22.974504 48.230754 C 22.456179 48.12824 21.944719 47.99839 21.440124 47.844619 C 20.935529 47.694266 20.4378 47.516575 19.950368 47.311548 C 19.462936 47.109938 18.985803 46.884407 18.522399 46.634957 C 18.055563 46.388925 17.602458 46.115555 17.163083 45.821682 C 16.723708 45.531227 16.301496 45.216851 15.893014 44.881973 C 15.484533 44.547095 15.093214 44.191715 14.722492 43.819248 C 14.348336 43.446782 13.994777 43.053813 13.65838 42.647175 C 13.325416 42.23712 13.009616 41.813397 12.717843 41.376005 C 12.422638 40.935197 12.151461 40.484136 11.904313 40.019408 C 11.653732 39.554679 11.430612 39.076282 11.228087 38.587633 C 11.025563 38.102402 10.847067 37.603502 10.692599 37.097768 C 10.541564 36.59545 10.411124 36.082882 10.308146 35.563479 C 10.205167 35.047494 10.12965 34.524674 10.07816 33.998437 C 10.026671 33.475617 9.99921 32.94938 9.99921 32.419726 L 9.99921 21.119301 C 9.99921 20.593064 10.026671 20.066827 10.07816 19.54059 C 10.12965 19.014353 10.205167 18.491533 10.308146 17.975548 C 10.411124 17.456145 10.541564 16.946994 10.692599 16.44126 C 10.847067 15.935526 11.025563 15.440043 11.228087 14.951394 C 11.430612 14.462746 11.653732 13.987765 11.904313 13.51962 C 12.151461 13.054891 12.422638 12.603831 12.717843 12.163022 C 13.009616 11.72563 13.325416 11.301907 13.65838 10.895269 C 13.994777 10.485214 14.348336 10.095662 14.722492 9.719779 C 15.093214 9.347313 15.484533 8.995349 15.893014 8.660471 C 16.301496 8.325593 16.723708 8.011218 17.163083 7.717345 C 17.602458 7.423472 18.055563 7.15352 18.522399 6.90407 C 18.985803 6.65462 19.462936 6.42909 19.950368 6.227479 C 20.4378 6.025869 20.935529 5.848179 21.440124 5.694408 C 21.944719 5.540638 22.456179 5.414204 22.974504 5.308273 C 23.492829 5.20576 24.014587 5.130583 24.539777 5.079326 C 25.064968 5.024652 25.593591 5.000732 26.118781 5.000732 Z M 26.118781 5.000732 " stroke="#2f215b" stroke-width="3" stroke-opacity="1" stroke-miterlimit="10"/></g></g></g></g></g><g id="139ac20558" transform="translate(52.8, 20.499999)"><g transform="translate(-52.8, -20.499999)" filter="url(#bd9ba083db)"><rect x="0" width="345.6" fill="#000000" y="0" height="107.999996" fill-opacity="1"/></g><path fill="#e2b808" d="M 28.585938 2.5 L 214.839844 2.5 C 215.589844 2.5 216.335938 2.535156 217.082031 2.609375 C 217.828125 2.683594 218.570312 2.792969 219.304688 2.941406 C 220.042969 3.089844 220.769531 3.269531 221.484375 3.488281 C 222.203125 3.707031 222.910156 3.960938 223.601562 4.25 C 224.292969 4.539062 224.972656 4.859375 225.632812 5.214844 C 226.292969 5.570312 226.9375 5.957031 227.558594 6.375 C 228.183594 6.792969 228.785156 7.242188 229.363281 7.71875 C 229.945312 8.199219 230.5 8.703125 231.027344 9.234375 C 231.558594 9.769531 232.0625 10.324219 232.539062 10.910156 C 233.015625 11.492188 233.460938 12.09375 233.875 12.722656 C 234.292969 13.347656 234.679688 13.992188 235.03125 14.65625 C 235.386719 15.320312 235.707031 16 235.992188 16.699219 C 236.28125 17.394531 236.53125 18.101562 236.75 18.824219 C 236.96875 19.542969 237.148438 20.273438 237.296875 21.011719 C 237.441406 21.75 237.550781 22.496094 237.625 23.246094 C 237.699219 23.996094 237.734375 24.746094 237.734375 25.5 L 237.734375 38.417969 C 237.734375 39.171875 237.699219 39.921875 237.625 40.671875 C 237.550781 41.421875 237.441406 42.164062 237.296875 42.902344 C 237.148438 43.644531 236.96875 44.371094 236.75 45.09375 C 236.53125 45.8125 236.28125 46.523438 235.992188 47.21875 C 235.707031 47.914062 235.386719 48.59375 235.03125 49.257812 C 234.679688 49.921875 234.292969 50.570312 233.875 51.195312 C 233.460938 51.820312 233.015625 52.425781 232.539062 53.007812 C 232.0625 53.589844 231.558594 54.148438 231.027344 54.679688 C 230.5 55.214844 229.945312 55.71875 229.363281 56.195312 C 228.785156 56.675781 228.183594 57.121094 227.558594 57.539062 C 226.9375 57.960938 226.292969 58.347656 225.632812 58.699219 C 224.972656 59.054688 224.292969 59.378906 223.601562 59.667969 C 222.910156 59.953125 222.203125 60.207031 221.484375 60.425781 C 220.769531 60.644531 220.042969 60.828125 219.304688 60.976562 C 218.570312 61.121094 217.828125 61.230469 217.082031 61.304688 C 216.335938 61.378906 215.589844 61.417969 214.839844 61.417969 L 28.585938 61.417969 C 27.835938 61.417969 27.089844 61.378906 26.34375 61.304688 C 25.59375 61.230469 24.855469 61.121094 24.121094 60.976562 C 23.382812 60.828125 22.65625 60.644531 21.941406 60.425781 C 21.222656 60.207031 20.515625 59.953125 19.824219 59.667969 C 19.132812 59.378906 18.453125 59.054688 17.792969 58.699219 C 17.132812 58.347656 16.488281 57.960938 15.867188 57.539062 C 15.242188 57.121094 14.640625 56.675781 14.0625 56.195312 C 13.480469 55.71875 12.925781 55.214844 12.394531 54.679688 C 11.867188 54.148438 11.363281 53.589844 10.886719 53.007812 C 10.410156 52.425781 9.964844 51.820312 9.546875 51.195312 C 9.132812 50.570312 8.746094 49.921875 8.394531 49.257812 C 8.039062 48.59375 7.71875 47.914062 7.433594 47.21875 C 7.144531 46.523438 6.894531 45.8125 6.675781 45.09375 C 6.457031 44.371094 6.277344 43.644531 6.128906 42.902344 C 5.984375 42.164062 5.875 41.421875 5.800781 40.671875 C 5.726562 39.921875 5.691406 39.171875 5.691406 38.417969 L 5.691406 25.5 C 5.691406 24.746094 5.726562 23.996094 5.800781 23.246094 C 5.875 22.496094 5.984375 21.75 6.128906 21.011719 C 6.277344 20.273438 6.457031 19.542969 6.675781 18.824219 C 6.894531 18.101562 7.144531 17.394531 7.433594 16.699219 C 7.71875 16 8.039062 15.320312 8.394531 14.65625 C 8.746094 13.992188 9.132812 13.347656 9.546875 12.722656 C 9.964844 12.09375 10.410156 11.492188 10.886719 10.910156 C 11.363281 10.324219 11.867188 9.769531 12.394531 9.234375 C 12.925781 8.703125 13.480469 8.199219 14.0625 7.71875 C 14.640625 7.242188 15.242188 6.792969 15.867188 6.375 C 16.488281 5.957031 17.132812 5.570312 17.792969 5.214844 C 18.453125 4.859375 19.132812 4.539062 19.824219 4.25 C 20.515625 3.960938 21.222656 3.707031 21.941406 3.488281 C 22.65625 3.269531 23.382812 3.089844 24.121094 2.941406 C 24.855469 2.792969 25.59375 2.683594 26.34375 2.609375 C 27.089844 2.535156 27.835938 2.5 28.585938 2.5 Z M 28.585938 2.5 " fill-opacity="1" fill-rule="nonzero"/><g clip-path="url(#819213e618)"><path fill="#ffd230" d="M 30.863281 0.214844 L 217.113281 0.214844 C 217.863281 0.214844 218.613281 0.25 219.359375 0.324219 C 220.105469 0.398438 220.847656 0.507812 221.582031 0.65625 C 222.316406 0.800781 223.042969 0.984375 223.761719 1.203125 C 224.480469 1.421875 225.183594 1.675781 225.878906 1.964844 C 226.570312 2.253906 227.246094 2.574219 227.910156 2.929688 C 228.570312 3.285156 229.210938 3.671875 229.835938 4.089844 C 230.460938 4.507812 231.0625 4.957031 231.640625 5.433594 C 232.21875 5.910156 232.773438 6.417969 233.304688 6.949219 C 233.835938 7.480469 234.339844 8.039062 234.8125 8.621094 C 235.289062 9.203125 235.734375 9.808594 236.152344 10.433594 C 236.570312 11.0625 236.953125 11.707031 237.308594 12.371094 C 237.660156 13.035156 237.980469 13.714844 238.269531 14.410156 C 238.554688 15.105469 238.808594 15.816406 239.027344 16.535156 C 239.242188 17.257812 239.425781 17.988281 239.570312 18.726562 C 239.71875 19.464844 239.828125 20.210938 239.902344 20.957031 C 239.976562 21.707031 240.011719 22.460938 240.011719 23.214844 L 240.011719 36.128906 C 240.011719 36.882812 239.976562 37.636719 239.902344 38.386719 C 239.828125 39.132812 239.71875 39.878906 239.570312 40.617188 C 239.425781 41.355469 239.242188 42.085938 239.027344 42.808594 C 238.808594 43.527344 238.554688 44.238281 238.269531 44.933594 C 237.980469 45.628906 237.660156 46.308594 237.308594 46.972656 C 236.953125 47.636719 236.570312 48.28125 236.152344 48.910156 C 235.734375 49.535156 235.289062 50.140625 234.8125 50.722656 C 234.339844 51.304688 233.835938 51.863281 233.304688 52.394531 C 232.773438 52.925781 232.21875 53.433594 231.640625 53.910156 C 231.0625 54.386719 230.460938 54.835938 229.835938 55.253906 C 229.210938 55.671875 228.570312 56.058594 227.910156 56.414062 C 227.246094 56.769531 226.570312 57.089844 225.878906 57.378906 C 225.183594 57.667969 224.480469 57.921875 223.761719 58.140625 C 223.042969 58.359375 222.316406 58.542969 221.582031 58.6875 C 220.847656 58.835938 220.105469 58.945312 219.359375 59.019531 C 218.613281 59.09375 217.863281 59.128906 217.113281 59.128906 L 30.863281 59.128906 C 30.113281 59.128906 29.363281 59.09375 28.617188 59.019531 C 27.871094 58.945312 27.128906 58.835938 26.394531 58.6875 C 25.660156 58.542969 24.933594 58.359375 24.214844 58.140625 C 23.496094 57.921875 22.792969 57.667969 22.101562 57.378906 C 21.40625 57.089844 20.730469 56.769531 20.070312 56.414062 C 19.40625 56.058594 18.765625 55.671875 18.140625 55.253906 C 17.519531 54.835938 16.917969 54.386719 16.335938 53.910156 C 15.757812 53.433594 15.203125 52.925781 14.671875 52.394531 C 14.140625 51.863281 13.640625 51.304688 13.164062 50.722656 C 12.6875 50.140625 12.242188 49.535156 11.824219 48.910156 C 11.40625 48.28125 11.023438 47.636719 10.667969 46.972656 C 10.316406 46.308594 9.996094 45.628906 9.707031 44.933594 C 9.421875 44.238281 9.167969 43.527344 8.953125 42.808594 C 8.734375 42.085938 8.550781 41.355469 8.40625 40.617188 C 8.257812 39.878906 8.148438 39.132812 8.074219 38.386719 C 8.003906 37.636719 7.964844 36.882812 7.964844 36.128906 L 7.964844 23.214844 C 7.964844 22.460938 8.003906 21.707031 8.074219 20.957031 C 8.148438 20.210938 8.257812 19.464844 8.40625 18.726562 C 8.550781 17.988281 8.734375 17.257812 8.953125 16.535156 C 9.167969 15.816406 9.421875 15.105469 9.707031 14.410156 C 9.996094 13.714844 10.316406 13.035156 10.667969 12.371094 C 11.023438 11.707031 11.40625 11.0625 11.824219 10.433594 C 12.242188 9.808594 12.6875 9.203125 13.164062 8.621094 C 13.640625 8.039062 14.140625 7.480469 14.671875 6.949219 C 15.203125 6.417969 15.757812 5.910156 16.335938 5.433594 C 16.917969 4.957031 17.519531 4.507812 18.140625 4.089844 C 18.765625 3.671875 19.40625 3.285156 20.070312 2.929688 C 20.730469 2.574219 21.40625 2.253906 22.101562 1.964844 C 22.792969 1.675781 23.496094 1.421875 24.214844 1.203125 C 24.933594 0.984375 25.660156 0.800781 26.394531 0.65625 C 27.128906 0.507812 27.871094 0.398438 28.617188 0.324219 C 29.363281 0.25 30.113281 0.214844 30.863281 0.214844 Z M 30.863281 0.214844 " fill-opacity="1" fill-rule="nonzero"/></g></g><g id="d7b0764493" mask="url(#0f46927a87)" filter="url(#4f2d7a52f2)"><rect x="0" width="345.6" fill="#000000" y="0" height="107.999996" fill-opacity="1"/></g><g id="14c3d736f5" mask="url(#abeaa3d448)"><g><g transform="translate(52.8, 20.499999)"><g transform="translate(-52.8, -20.499999)" filter="url(#bd9ba083db)"><rect x="0" width="345.6" fill="#000000" height="107.999996" y="0" fill-opacity="1"/></g><path fill="#e2b808" d="M 28.585938 2.5 L 214.839844 2.5 C 215.589844 2.5 216.335938 2.535156 217.082031 2.609375 C 217.828125 2.683594 218.570312 2.792969 219.304688 2.941406 C 220.042969 3.089844 220.769531 3.269531 221.484375 3.488281 C 222.203125 3.707031 222.910156 3.960938 223.601562 4.25 C 224.292969 4.539062 224.972656 4.859375 225.632812 5.214844 C 226.292969 5.570312 226.9375 5.957031 227.558594 6.375 C 228.183594 6.792969 228.785156 7.242188 229.363281 7.71875 C 229.945312 8.199219 230.5 8.703125 231.027344 9.234375 C 231.558594 9.769531 232.0625 10.324219 232.539062 10.910156 C 233.015625 11.492188 233.460938 12.09375 233.875 12.722656 C 234.292969 13.347656 234.679688 13.992188 235.03125 14.65625 C 235.386719 15.320312 235.707031 16 235.992188 16.699219 C 236.28125 17.394531 236.53125 18.101562 236.75 18.824219 C 236.96875 19.542969 237.148438 20.273438 237.296875 21.011719 C 237.441406 21.75 237.550781 22.496094 237.625 23.246094 C 237.699219 23.996094 237.734375 24.746094 237.734375 25.5 L 237.734375 38.417969 C 237.734375 39.171875 237.699219 39.921875 237.625 40.671875 C 237.550781 41.421875 237.441406 42.164062 237.296875 42.902344 C 237.148438 43.644531 236.96875 44.371094 236.75 45.09375 C 236.53125 45.8125 236.28125 46.523438 235.992188 47.21875 C 235.707031 47.914062 235.386719 48.59375 235.03125 49.257812 C 234.679688 49.921875 234.292969 50.570312 233.875 51.195312 C 233.460938 51.820312 233.015625 52.425781 232.539062 53.007812 C 232.0625 53.589844 231.558594 54.148438 231.027344 54.679688 C 230.5 55.214844 229.945312 55.71875 229.363281 56.195312 C 228.785156 56.675781 228.183594 57.121094 227.558594 57.539062 C 226.9375 57.960938 226.292969 58.347656 225.632812 58.699219 C 224.972656 59.054688 224.292969 59.378906 223.601562 59.667969 C 222.910156 59.953125 222.203125 60.207031 221.484375 60.425781 C 220.769531 60.644531 220.042969 60.828125 219.304688 60.976562 C 218.570312 61.121094 217.828125 61.230469 217.082031 61.304688 C 216.335938 61.378906 215.589844 61.417969 214.839844 61.417969 L 28.585938 61.417969 C 27.835938 61.417969 27.089844 61.378906 26.34375 61.304688 C 25.59375 61.230469 24.855469 61.121094 24.121094 60.976562 C 23.382812 60.828125 22.65625 60.644531 21.941406 60.425781 C 21.222656 60.207031 20.515625 59.953125 19.824219 59.667969 C 19.132812 59.378906 18.453125 59.054688 17.792969 58.699219 C 17.132812 58.347656 16.488281 57.960938 15.867188 57.539062 C 15.242188 57.121094 14.640625 56.675781 14.0625 56.195312 C 13.480469 55.71875 12.925781 55.214844 12.394531 54.679688 C 11.867188 54.148438 11.363281 53.589844 10.886719 53.007812 C 10.410156 52.425781 9.964844 51.820312 9.546875 51.195312 C 9.132812 50.570312 8.746094 49.921875 8.394531 49.257812 C 8.039062 48.59375 7.71875 47.914062 7.433594 47.21875 C 7.144531 46.523438 6.894531 45.8125 6.675781 45.09375 C 6.457031 44.371094 6.277344 43.644531 6.128906 42.902344 C 5.984375 42.164062 5.875 41.421875 5.800781 40.671875 C 5.726562 39.921875 5.691406 39.171875 5.691406 38.417969 L 5.691406 25.5 C 5.691406 24.746094 5.726562 23.996094 5.800781 23.246094 C 5.875 22.496094 5.984375 21.75 6.128906 21.011719 C 6.277344 20.273438 6.457031 19.542969 6.675781 18.824219 C 6.894531 18.101562 7.144531 17.394531 7.433594 16.699219 C 7.71875 16 8.039062 15.320312 8.394531 14.65625 C 8.746094 13.992188 9.132812 13.347656 9.546875 12.722656 C 9.964844 12.09375 10.410156 11.492188 10.886719 10.910156 C 11.363281 10.324219 11.867188 9.769531 12.394531 9.234375 C 12.925781 8.703125 13.480469 8.199219 14.0625 7.71875 C 14.640625 7.242188 15.242188 6.792969 15.867188 6.375 C 16.488281 5.957031 17.132812 5.570312 17.792969 5.214844 C 18.453125 4.859375 19.132812 4.539062 19.824219 4.25 C 20.515625 3.960938 21.222656 3.707031 21.941406 3.488281 C 22.65625 3.269531 23.382812 3.089844 24.121094 2.941406 C 24.855469 2.792969 25.59375 2.683594 26.34375 2.609375 C 27.089844 2.535156 27.835938 2.5 28.585938 2.5 Z M 28.585938 2.5 " fill-opacity="1" fill-rule="nonzero"/><g clip-path="url(#819213e618)"><path fill="#ffd230" d="M 30.863281 0.214844 L 217.113281 0.214844 C 217.863281 0.214844 218.613281 0.25 219.359375 0.324219 C 220.105469 0.398438 220.847656 0.507812 221.582031 0.65625 C 222.316406 0.800781 223.042969 0.984375 223.761719 1.203125 C 224.480469 1.421875 225.183594 1.675781 225.878906 1.964844 C 226.570312 2.253906 227.246094 2.574219 227.910156 2.929688 C 228.570312 3.285156 229.210938 3.671875 229.835938 4.089844 C 230.460938 4.507812 231.0625 4.957031 231.640625 5.433594 C 232.21875 5.910156 232.773438 6.417969 233.304688 6.949219 C 233.835938 7.480469 234.339844 8.039062 234.8125 8.621094 C 235.289062 9.203125 235.734375 9.808594 236.152344 10.433594 C 236.570312 11.0625 236.953125 11.707031 237.308594 12.371094 C 237.660156 13.035156 237.980469 13.714844 238.269531 14.410156 C 238.554688 15.105469 238.808594 15.816406 239.027344 16.535156 C 239.242188 17.257812 239.425781 17.988281 239.570312 18.726562 C 239.71875 19.464844 239.828125 20.210938 239.902344 20.957031 C 239.976562 21.707031 240.011719 22.460938 240.011719 23.214844 L 240.011719 36.128906 C 240.011719 36.882812 239.976562 37.636719 239.902344 38.386719 C 239.828125 39.132812 239.71875 39.878906 239.570312 40.617188 C 239.425781 41.355469 239.242188 42.085938 239.027344 42.808594 C 238.808594 43.527344 238.554688 44.238281 238.269531 44.933594 C 237.980469 45.628906 237.660156 46.308594 237.308594 46.972656 C 236.953125 47.636719 236.570312 48.28125 236.152344 48.910156 C 235.734375 49.535156 235.289062 50.140625 234.8125 50.722656 C 234.339844 51.304688 233.835938 51.863281 233.304688 52.394531 C 232.773438 52.925781 232.21875 53.433594 231.640625 53.910156 C 231.0625 54.386719 230.460938 54.835938 229.835938 55.253906 C 229.210938 55.671875 228.570312 56.058594 227.910156 56.414062 C 227.246094 56.769531 226.570312 57.089844 225.878906 57.378906 C 225.183594 57.667969 224.480469 57.921875 223.761719 58.140625 C 223.042969 58.359375 222.316406 58.542969 221.582031 58.6875 C 220.847656 58.835938 220.105469 58.945312 219.359375 59.019531 C 218.613281 59.09375 217.863281 59.128906 217.113281 59.128906 L 30.863281 59.128906 C 30.113281 59.128906 29.363281 59.09375 28.617188 59.019531 C 27.871094 58.945312 27.128906 58.835938 26.394531 58.6875 C 25.660156 58.542969 24.933594 58.359375 24.214844 58.140625 C 23.496094 57.921875 22.792969 57.667969 22.101562 57.378906 C 21.40625 57.089844 20.730469 56.769531 20.070312 56.414062 C 19.40625 56.058594 18.765625 55.671875 18.140625 55.253906 C 17.519531 54.835938 16.917969 54.386719 16.335938 53.910156 C 15.757812 53.433594 15.203125 52.925781 14.671875 52.394531 C 14.140625 51.863281 13.640625 51.304688 13.164062 50.722656 C 12.6875 50.140625 12.242188 49.535156 11.824219 48.910156 C 11.40625 48.28125 11.023438 47.636719 10.667969 46.972656 C 10.316406 46.308594 9.996094 45.628906 9.707031 44.933594 C 9.421875 44.238281 9.167969 43.527344 8.953125 42.808594 C 8.734375 42.085938 8.550781 41.355469 8.40625 40.617188 C 8.257812 39.878906 8.148438 39.132812 8.074219 38.386719 C 8.003906 37.636719 7.964844 36.882812 7.964844 36.128906 L 7.964844 23.214844 C 7.964844 22.460938 8.003906 21.707031 8.074219 20.957031 C 8.148438 20.210938 8.257812 19.464844 8.40625 18.726562 C 8.550781 17.988281 8.734375 17.257812 8.953125 16.535156 C 9.167969 15.816406 9.421875 15.105469 9.707031 14.410156 C 9.996094 13.714844 10.316406 13.035156 10.667969 12.371094 C 11.023438 11.707031 11.40625 11.0625 11.824219 10.433594 C 12.242188 9.808594 12.6875 9.203125 13.164062 8.621094 C 13.640625 8.039062 14.140625 7.480469 14.671875 6.949219 C 15.203125 6.417969 15.757812 5.910156 16.335938 5.433594 C 16.917969 4.957031 17.519531 4.507812 18.140625 4.089844 C 18.765625 3.671875 19.40625 3.285156 20.070312 2.929688 C 20.730469 2.574219 21.40625 2.253906 22.101562 1.964844 C 22.792969 1.675781 23.496094 1.421875 24.214844 1.203125 C 24.933594 0.984375 25.660156 0.800781 26.394531 0.65625 C 27.128906 0.507812 27.871094 0.398438 28.617188 0.324219 C 29.363281 0.25 30.113281 0.214844 30.863281 0.214844 Z M 30.863281 0.214844 " fill-opacity="1" fill-rule="nonzero"/></g></g></g></g><clipPath id="eeefe9374a"><path d="M 0 0.078125 L 240 0.078125 L 240 67.398438 L 0 67.398438 Z M 0 0.078125 " clip-rule="nonzero"/></clipPath><clipPath id="0ef05adf19"><rect x="0" width="240" y="0" height="68"/></clipPath><clipPath id="109c7fdf2b"><path d="M 31.617188 19.457031 L 64.617188 19.457031 L 64.617188 49.457031 L 31.617188 49.457031 Z M 31.617188 19.457031 " clip-rule="nonzero"/></clipPath></defs><rect x="-24" width="288" fill="#ffffff" y="-7.5" height="89.999996" fill-opacity="1"/><rect x="-24" width="288" fill="#ffffff" y="-7.5" height="89.999996" fill-opacity="1"/><rect x="-24" width="288" fill="#ffffff" y="-7.5" height="89.999996" fill-opacity="1"/><g clip-path="url(#2edcf2f7ca)"><g transform="matrix(1, 0, 0, 1, 0, 4)"><g clip-path="url(#0ef05adf19)"><g transform="translate(-52.8, -20.499999)" filter="url(#12532335db)"><rect x="0" width="345.6" fill="#000000" height="107.999996" y="0" fill-opacity="1"/></g><g clip-path="url(#eeefe9374a)"><path stroke-linecap="butt" transform="matrix(1.13798, 0, 0, 1.14314, 0.0000048, 0.21315)" fill="none" stroke-linejoin="miter" d="M 27.121106 3.999515 L 190.788303 3.999515 C 191.316926 3.999515 191.845549 4.026852 192.370739 4.078109 C 192.89593 4.129366 193.417688 4.20796 193.936013 4.310473 C 194.454338 4.412987 194.965798 4.539421 195.470393 4.693191 C 195.974988 4.846962 196.472717 5.024652 196.960149 5.226262 C 197.447581 5.427873 197.924714 5.653403 198.388118 5.902853 C 198.854954 6.152303 199.308059 6.422255 199.747434 6.716128 C 200.183377 7.010001 200.609021 7.324376 201.017503 7.659254 C 201.425984 7.994132 201.81387 8.349513 202.188025 8.721979 C 202.56218 9.094445 202.91574 9.483997 203.252137 9.894052 C 203.5851 10.30069 203.900901 10.724413 204.192674 11.165222 C 204.487879 11.602614 204.759056 12.057091 205.006204 12.52182 C 205.256785 12.986548 205.479905 13.464946 205.68243 13.950177 C 205.884954 14.438826 206.06345 14.934308 206.214485 15.440043 C 206.368953 15.945777 206.49596 16.458345 206.598938 16.974331 C 206.701917 17.493734 206.780867 18.013136 206.832356 18.539373 C 206.883846 19.06561 206.911307 19.591847 206.911307 20.121501 L 206.911307 31.418509 C 206.911307 31.948163 206.883846 32.4744 206.832356 33.000637 C 206.780867 33.526874 206.701917 34.046277 206.598938 34.565679 C 206.49596 35.081665 206.368953 35.594233 206.214485 36.099968 C 206.06345 36.605702 205.884954 37.101185 205.68243 37.589833 C 205.479905 38.075065 205.256785 38.553462 205.006204 39.018191 C 204.759056 39.482919 204.487879 39.937397 204.192674 40.374788 C 203.900901 40.815597 203.5851 41.23932 203.252137 41.645958 C 202.91574 42.056013 202.56218 42.445565 202.188025 42.818031 C 201.81387 43.190498 201.425984 43.545878 201.017503 43.880756 C 200.609021 44.215634 200.183377 44.53001 199.747434 44.823882 C 199.308059 45.117755 198.854954 45.387708 198.388118 45.637158 C 197.924714 45.886608 197.447581 46.112138 196.960149 46.313748 C 196.472717 46.515358 195.974988 46.693049 195.470393 46.846819 C 194.965798 47.00059 194.454338 47.127023 193.936013 47.229537 C 193.417688 47.332051 192.89593 47.410644 192.370739 47.461901 C 191.845549 47.513158 191.316926 47.540495 190.788303 47.540495 L 27.121106 47.540495 C 26.592483 47.540495 26.06386 47.513158 25.538669 47.461901 C 25.013479 47.410644 24.491721 47.332051 23.976828 47.229537 C 23.458503 47.127023 22.947043 47.00059 22.439016 46.846819 C 21.934421 46.693049 21.440124 46.515358 20.952692 46.313748 C 20.461828 46.112138 19.988127 45.886608 19.521291 45.637158 C 19.054455 45.387708 18.604782 45.117755 18.165407 44.823882 C 17.726032 44.53001 17.300387 44.215634 16.891906 43.880756 C 16.486857 43.545878 16.095539 43.190498 15.721383 42.818031 C 15.347228 42.445565 14.993669 42.056013 14.660705 41.645958 C 14.324308 41.23932 14.008507 40.815597 13.716735 40.374788 C 13.424962 39.937397 13.153786 39.482919 12.903205 39.018191 C 12.656056 38.553462 12.429503 38.075065 12.226979 37.589833 C 12.024454 37.101185 11.845958 36.605702 11.694923 36.099968 C 11.540455 35.594233 11.413449 35.081665 11.31047 34.565679 C 11.207492 34.046277 11.128541 33.526874 11.077052 33.000637 C 11.025563 32.4744 11.001535 31.948163 11.001535 31.418509 L 11.001535 20.121501 C 11.001535 19.591847 11.025563 19.06561 11.077052 18.539373 C 11.128541 18.013136 11.207492 17.493734 11.31047 16.974331 C 11.413449 16.458345 11.540455 15.945777 11.694923 15.440043 C 11.845958 14.934308 12.024454 14.438826 12.226979 13.950177 C 12.429503 13.464946 12.656056 12.986548 12.903205 12.52182 C 13.153786 12.057091 13.424962 11.602614 13.716735 11.165222 C 14.008507 10.724413 14.324308 10.30069 14.660705 9.894052 C 14.993669 9.483997 15.347228 9.094445 15.721383 8.721979 C 16.095539 8.349513 16.486857 7.994132 16.891906 7.659254 C 17.300387 7.324376 17.726032 7.010001 18.165407 6.716128 C 18.604782 6.422255 19.054455 6.152303 19.521291 5.902853 C 19.988127 5.653403 20.461828 5.427873 20.952692 5.226262 C 21.440124 5.024652 21.934421 4.846962 22.439016 4.693191 C 22.947043 4.539421 23.458503 4.412987 23.976828 4.310473 C 24.491721 4.20796 25.013479 4.129366 25.538669 4.078109 C 26.06386 4.026852 26.592483 3.999515 27.121106 3.999515 Z M 27.121106 3.999515 " stroke="#ffffff" stroke-width="3" stroke-opacity="1" stroke-miterlimit="10"/></g></g></g></g><g fill="#ffffff" fill-opacity="1"><g transform="translate(82.247707, 41.583619)"><g><path d="M 5.132812 0.222656 L 5.757812 0.222656 L 6.324219 0.160156 L 6.769531 0.160156 L 7.578125 0.0390625 L 7.941406 -0.183594 L 9.070312 -0.707031 L 9.355469 -0.949219 L 9.699219 -1.191406 L 10.507812 -2.082031 L 10.851562 -2.769531 L 11.113281 -3.636719 L 11.214844 -4.625 L 11.171875 -9.980469 L 11.234375 -10.34375 L 11.195312 -13.558594 L 10.992188 -13.960938 L 10.363281 -14.125 L 9.355469 -14.144531 L 8.929688 -14.101562 L 7.3125 -14.164062 L 6.871094 -14.101562 L 6.285156 -14.203125 L 5.675781 -14.101562 L 5.253906 -14.101562 L 4.828125 -13.921875 L 4.605469 -13.578125 L 4.648438 -13.152344 L 4.625 -12.769531 L 4.648438 -12.285156 L 4.605469 -11.960938 L 4.648438 -11.558594 L 4.789062 -11.132812 L 5.253906 -10.929688 L 5.636719 -10.871094 L 6.222656 -10.871094 L 6.847656 -10.910156 L 7.273438 -10.6875 L 7.496094 -10.304688 L 7.414062 -4.101562 L 7.253906 -3.699219 L 7.03125 -3.414062 L 6.324219 -3.070312 L 5.738281 -3.011719 L 5.171875 -3.132812 L 4.769531 -3.273438 L 4.40625 -3.476562 L 4.121094 -3.738281 L 3.980469 -4.082031 L 3.859375 -4.707031 L 3.839844 -5.617188 L 3.878906 -5.980469 L 3.65625 -6.34375 L 3.210938 -6.507812 L 1.941406 -6.546875 L 1.535156 -6.507812 L 1.089844 -6.507812 L 0.648438 -6.324219 L 0.445312 -5.941406 L 0.425781 -5.234375 L 0.484375 -4.648438 L 0.464844 -4.039062 L 0.503906 -3.636719 L 0.625 -3.234375 L 0.910156 -2.503906 L 1.554688 -1.453125 L 1.878906 -1.152344 L 2.808594 -0.445312 L 3.554688 -0.160156 L 3.917969 -0.0820312 L 4.363281 0.101562 L 4.726562 0.101562 Z M 5.132812 0.222656 "/></g></g></g><g fill="#ffffff" fill-opacity="1"><g transform="translate(94.854448, 41.583619)"><g><path d="M 7.558594 0.242188 L 8.6875 0.222656 L 9.902344 0.0625 L 11.414062 -0.445312 L 12.082031 -0.808594 L 12.386719 -1.050781 L 12.769531 -1.234375 L 13.335938 -1.71875 L 13.597656 -2.082031 L 13.878906 -2.363281 L 14.769531 -3.71875 L 15.074219 -4.484375 L 15.234375 -5.253906 L 15.253906 -5.617188 L 15.355469 -6.019531 L 15.375 -6.445312 L 15.457031 -7.03125 L 15.394531 -8.042969 L 15.253906 -8.871094 L 14.75 -10.386719 L 14.367188 -11.132812 L 13.921875 -11.738281 L 13.355469 -12.367188 L 12.769531 -12.871094 L 12.304688 -13.195312 L 11.699219 -13.457031 L 11.394531 -13.679688 L 9.839844 -14.164062 L 8.667969 -14.367188 L 8.121094 -14.386719 L 5.980469 -14.082031 L 4.464844 -13.515625 L 4.164062 -13.292969 L 3.796875 -13.113281 L 3.113281 -12.609375 L 2.121094 -11.457031 L 1.496094 -10.386719 L 1.191406 -9.617188 L 0.847656 -8.0625 L 0.789062 -6.425781 L 0.847656 -6 L 0.949219 -5.636719 L 0.988281 -5.253906 L 1.171875 -4.484375 L 2.101562 -2.648438 L 2.34375 -2.40625 L 2.605469 -2.082031 L 2.910156 -1.796875 L 3.132812 -1.535156 L 3.796875 -1.011719 L 5.375 -0.203125 L 5.960938 0 L 6.40625 0.0390625 L 7.132812 0.203125 Z M 8.6875 -3.332031 L 7.578125 -3.332031 L 7.132812 -3.394531 L 6.40625 -3.699219 L 6.082031 -3.878906 L 5.535156 -4.324219 L 5.273438 -4.605469 L 4.992188 -4.992188 L 4.890625 -5.3125 L 4.707031 -5.675781 L 4.546875 -6.425781 L 4.546875 -7.65625 L 4.648438 -8.019531 L 4.707031 -8.40625 L 4.871094 -8.769531 L 4.992188 -9.132812 L 5.476562 -9.777344 L 6.484375 -10.464844 L 6.75 -10.566406 L 7.535156 -10.769531 L 8.101562 -10.808594 L 9.070312 -10.6875 L 9.4375 -10.609375 L 9.800781 -10.445312 L 10.425781 -10 L 11.214844 -9.171875 L 11.457031 -8.40625 L 11.636719 -8.019531 L 11.699219 -7.65625 L 11.660156 -6.425781 L 11.496094 -5.675781 L 11.355469 -5.3125 L 11.132812 -4.949219 L 11.011719 -4.648438 L 10.730469 -4.324219 L 9.757812 -3.65625 L 9.394531 -3.554688 L 9.09375 -3.414062 Z M 8.6875 -3.332031 "/></g></g></g><g fill="#ffffff" fill-opacity="1"><g transform="translate(111.057347, 41.583619)"><g><path d="M 0.96875 -0.585938 L 1.171875 -0.160156 L 1.574219 -0.0195312 L 7.578125 0.0195312 L 7.960938 -0.183594 L 8.183594 -0.546875 L 8.183594 -0.988281 L 8.144531 -1.355469 L 8.203125 -2.585938 L 7.921875 -2.929688 L 6.566406 -3.355469 L 6.34375 -3.757812 L 6.386719 -5.414062 L 6.304688 -6.222656 L 6.386719 -7.070312 L 6.34375 -7.679688 L 6.386719 -8.304688 L 6.34375 -8.6875 L 6.386719 -9.09375 L 6.34375 -9.515625 L 6.34375 -10.363281 L 6.566406 -10.730469 L 6.949219 -10.949219 L 7.394531 -10.972656 L 7.777344 -11.195312 L 8 -11.578125 L 8 -12.769531 L 8.042969 -13.132812 L 8 -13.539062 L 7.839844 -13.941406 L 7.191406 -14.125 L 4.625 -14.144531 L 4.183594 -14.101562 L 2.949219 -14.125 L 2.566406 -14.101562 L 1.777344 -14.144531 L 1.332031 -13.941406 L 1.109375 -13.515625 L 1.109375 -13.132812 L 1.070312 -12.789062 L 1.070312 -12.34375 L 1.109375 -11.941406 L 1.109375 -11.558594 L 1.3125 -11.171875 L 2.546875 -10.75 L 2.808594 -10.386719 L 2.746094 -8.667969 L 2.769531 -8.324219 L 2.828125 -7.859375 L 2.808594 -7.03125 L 2.769531 -6.628906 L 2.847656 -5.839844 L 2.746094 -5.433594 L 2.828125 -4.566406 L 2.789062 -3.777344 L 2.585938 -3.332031 L 1.253906 -2.910156 L 1.011719 -2.527344 L 0.96875 -2.140625 Z M 0.96875 -0.585938 "/></g></g></g><g fill="#ffffff" fill-opacity="1"><g transform="translate(120.229557, 41.583619)"><g><path d="M 11.921875 -0.324219 L 12.507812 -0.0625 L 13.03125 0.101562 L 13.496094 -0.121094 L 13.679688 -0.546875 L 13.78125 -6.042969 L 13.699219 -6.605469 L 13.738281 -7.050781 L 13.660156 -9.476562 L 13.71875 -10.285156 L 13.679688 -10.667969 L 13.679688 -11.476562 L 13.757812 -11.878906 L 13.71875 -12.488281 L 13.757812 -13.539062 L 13.515625 -13.902344 L 13.074219 -14.101562 L 12.667969 -14.144531 L 12.285156 -14.144531 L 11.839844 -14.101562 L 11.414062 -14.164062 L 11.050781 -14.125 L 10.648438 -14.144531 L 10.164062 -13.941406 L 9.960938 -13.515625 L 9.941406 -9.839844 L 10.023438 -9.414062 L 10.023438 -9.03125 L 9.941406 -8.605469 L 9.960938 -7.800781 L 9.859375 -7.476562 L 9.578125 -7.558594 L 8.6875 -8.464844 L 8.386719 -8.707031 L 7.679688 -9.4375 L 7.355469 -9.679688 L 7.132812 -9.960938 L 6.707031 -10.40625 L 6.082031 -10.929688 L 5.859375 -11.234375 L 5.476562 -11.496094 L 5.273438 -11.800781 L 4.929688 -12.042969 L 4.667969 -12.386719 L 3.578125 -13.496094 L 2.769531 -14.042969 L 2.222656 -14.203125 L 1.738281 -13.960938 L 1.476562 -13.578125 L 1.515625 -10.75 L 1.476562 -10.34375 L 1.535156 -9.515625 L 1.496094 -9.152344 L 1.515625 -8.730469 L 1.453125 -8.304688 L 1.535156 -5.414062 L 1.496094 -5.050781 L 1.496094 -4.667969 L 1.453125 -4.222656 L 1.453125 -3.839844 L 1.515625 -3.414062 L 1.496094 -2.585938 L 1.535156 -2.183594 L 1.476562 -1.414062 L 1.535156 -1.011719 L 1.535156 -0.625 L 1.71875 -0.183594 L 2.101562 0.0390625 L 2.789062 0 L 3.796875 0.0625 L 4.222656 0 L 4.6875 0.0390625 L 5.089844 -0.160156 L 5.273438 -0.566406 L 5.210938 -0.96875 L 5.273438 -5.921875 L 5.191406 -6.34375 L 5.394531 -6.585938 L 5.65625 -6.527344 L 8.546875 -3.699219 L 8.871094 -3.433594 L 10.828125 -1.476562 L 11.09375 -1.152344 L 11.414062 -0.890625 L 11.660156 -0.585938 Z M 11.921875 -0.324219 "/></g></g></g><g fill="#ffffff" fill-opacity="1"><g transform="translate(135.462706, 41.583619)"><g/></g></g><g fill="#ffffff" fill-opacity="1"><g transform="translate(140.937754, 41.583619)"><g><path d="M 7.011719 0.203125 L 9.03125 0.203125 L 10.546875 -0.160156 L 11.980469 -0.890625 L 12.609375 -1.375 L 12.910156 -1.695312 L 13.214844 -1.941406 L 13.457031 -2.222656 L 13.660156 -2.566406 L 13.839844 -2.929688 L 14.082031 -3.210938 L 14.488281 -4.40625 L 14.648438 -5.171875 L 14.667969 -5.515625 L 14.75 -5.878906 L 14.75 -6.285156 L 14.789062 -6.667969 L 14.75 -7.433594 L 14.546875 -7.777344 L 14.164062 -7.980469 L 13.738281 -8 L 13.316406 -8.0625 L 10.585938 -8 L 9.375 -8.082031 L 8.605469 -8.019531 L 8.203125 -7.820312 L 8.019531 -7.433594 L 8.019531 -5.515625 L 8.203125 -5.191406 L 8.566406 -4.96875 L 9.152344 -4.929688 L 10.164062 -5.011719 L 10.527344 -4.949219 L 10.828125 -4.808594 L 10.890625 -4.464844 L 10.6875 -4.121094 L 10.386719 -3.777344 L 10.101562 -3.554688 L 9.4375 -3.292969 L 8.648438 -3.113281 L 8.121094 -3.089844 L 7.09375 -3.210938 L 6 -3.65625 L 5.394531 -4.222656 L 5.171875 -4.503906 L 4.789062 -5.234375 L 4.625 -5.820312 L 4.527344 -6.464844 L 4.503906 -7.636719 L 4.648438 -8.425781 L 4.96875 -9.152344 L 5.597656 -10.101562 L 6.304688 -10.609375 L 6.648438 -10.789062 L 7.03125 -10.828125 L 7.375 -10.992188 L 8.605469 -11.03125 L 9.355469 -10.828125 L 9.738281 -10.667969 L 10.121094 -10.40625 L 10.363281 -10.144531 L 10.628906 -9.800781 L 11.050781 -9.457031 L 11.535156 -9.316406 L 12.164062 -9.292969 L 12.769531 -9.375 L 13.738281 -9.316406 L 14.246094 -9.535156 L 14.367188 -9.878906 L 14.082031 -10.707031 L 13.902344 -11.074219 L 13.09375 -12.246094 L 12.648438 -12.609375 L 12.324219 -12.910156 L 12.023438 -13.152344 L 10.609375 -13.902344 L 10.183594 -13.980469 L 9.234375 -14.246094 L 7.355469 -14.324219 L 6.949219 -14.304688 L 6.605469 -14.183594 L 6.222656 -14.164062 L 4.667969 -13.597656 L 3.554688 -12.910156 L 2.667969 -12.121094 L 2.40625 -11.800781 L 2.101562 -11.496094 L 1.878906 -11.195312 L 1.132812 -9.679688 L 0.769531 -7.679688 L 0.746094 -7.03125 L 0.847656 -5.617188 L 1.414062 -3.71875 L 1.777344 -3.03125 L 2.242188 -2.34375 L 3.050781 -1.496094 L 3.71875 -1.03125 L 5.113281 -0.222656 L 5.457031 -0.121094 L 6.605469 0.0820312 Z M 7.011719 0.203125 "/></g></g></g><g fill="#ffffff" fill-opacity="1"><g transform="translate(156.413334, 41.583619)"><g><path d="M 0.261719 -0.546875 L 0.363281 -0.121094 L 0.769531 -0.0195312 L 2.546875 -0.0195312 L 3.070312 0.0390625 L 3.535156 -0.160156 L 3.898438 -0.523438 L 4.242188 -1.210938 L 4.585938 -1.597656 L 5.070312 -1.796875 L 5.476562 -1.757812 L 6.605469 -1.777344 L 7.03125 -1.71875 L 7.496094 -1.777344 L 7.859375 -1.777344 L 8.285156 -1.738281 L 9.234375 -1.777344 L 9.902344 -1.554688 L 10.324219 -1.234375 L 10.425781 -0.867188 L 10.648438 -0.503906 L 10.992188 -0.183594 L 11.515625 0.0195312 L 11.878906 -0.0195312 L 12.585938 0.0390625 L 13.839844 0 L 14.203125 -0.121094 L 14.285156 -0.546875 L 14.164062 -1.050781 L 14.023438 -1.414062 L 13.757812 -1.757812 L 13.636719 -2.160156 L 13.4375 -2.464844 L 13.316406 -2.847656 L 12.972656 -3.578125 L 12.832031 -3.960938 L 12.628906 -4.304688 L 12.34375 -5.050781 L 12.121094 -5.375 L 11.960938 -5.777344 L 11.78125 -6.121094 L 11.636719 -6.527344 L 11.457031 -6.828125 L 11.335938 -7.234375 L 11.113281 -7.597656 L 10.949219 -7.941406 L 10.75 -8.285156 L 10.648438 -8.667969 L 10.242188 -9.375 L 10.121094 -9.757812 L 9.757812 -10.527344 L 9.65625 -10.851562 L 9.355469 -11.558594 L 8.949219 -12.304688 L 8.628906 -13.074219 L 8.445312 -13.375 L 8.324219 -13.757812 L 7.960938 -14.144531 L 7.273438 -14.324219 L 6.628906 -14.125 L 6.242188 -13.757812 L 6.121094 -13.394531 L 5.253906 -11.578125 L 5.03125 -11.214844 L 3.898438 -8.667969 L 3.796875 -8.324219 L 3.578125 -7.960938 L 3.253906 -7.234375 L 2.949219 -6.707031 L 2.808594 -6.324219 L 2.527344 -5.800781 L 2.40625 -5.375 L 2.222656 -5.050781 L 2.082031 -4.648438 L 1.515625 -3.597656 L 0.929688 -2.121094 L 0.6875 -1.796875 L 0.503906 -1.394531 Z M 6.507812 -4.992188 L 6.121094 -5.152344 L 6.0625 -5.554688 L 6.871094 -7.394531 L 7.050781 -7.71875 L 7.3125 -7.921875 L 7.558594 -7.757812 L 7.820312 -6.972656 L 8.042969 -6.628906 L 8.121094 -6.304688 L 8.324219 -5.898438 L 8.464844 -5.535156 L 8.425781 -5.171875 L 8.082031 -5.011719 Z M 6.507812 -4.992188 "/></g></g></g><g fill="#ffffff" fill-opacity="1"><g transform="translate(171.080791, 41.583619)"><g><path d="M 1.496094 -0.585938 L 1.675781 -0.222656 L 2.160156 0 L 4.382812 -0.0390625 L 4.992188 -0.222656 L 5.210938 -0.546875 L 5.253906 -0.929688 L 5.234375 -1.355469 L 5.171875 -1.777344 L 5.234375 -4.503906 L 5.152344 -5.675781 L 5.335938 -5.960938 L 5.636719 -5.878906 L 6.140625 -5.253906 L 7.273438 -4.183594 L 7.535156 -3.839844 L 8.203125 -3.292969 L 8.667969 -3.292969 L 9.011719 -3.535156 L 10.707031 -5.253906 L 10.972656 -5.597656 L 11.253906 -5.878906 L 11.496094 -5.921875 L 11.660156 -5.675781 L 11.71875 -5.273438 L 11.660156 -4.890625 L 11.679688 -4.527344 L 11.660156 -4.121094 L 11.71875 -3.375 L 11.660156 -0.585938 L 11.859375 -0.160156 L 12.304688 0 L 14.730469 0.0195312 L 15.113281 -0.222656 L 15.335938 -0.648438 L 15.394531 -1.050781 L 15.316406 -3.476562 L 15.355469 -3.859375 L 15.316406 -4.648438 L 15.375 -5.050781 L 15.355469 -5.457031 L 15.394531 -5.878906 L 15.355469 -6.285156 L 15.417969 -6.648438 L 15.355469 -12.367188 L 15.394531 -12.789062 L 15.355469 -13.132812 L 15.375 -13.558594 L 15.152344 -13.941406 L 14.75 -14.183594 L 14.144531 -14.003906 L 13.636719 -13.71875 L 13.171875 -13.152344 L 12.023438 -11.960938 L 11.839844 -11.660156 L 8.851562 -8.484375 L 8.40625 -8.34375 L 8.042969 -8.464844 L 7.777344 -8.730469 L 7.535156 -9.070312 L 7.214844 -9.335938 L 6.972656 -9.65625 L 5.578125 -11.09375 L 5.089844 -11.699219 L 4.75 -12 L 4.484375 -12.285156 L 4.261719 -12.585938 L 3.980469 -12.851562 L 3.757812 -13.132812 L 3.3125 -13.597656 L 2.726562 -14.023438 L 2.140625 -14.183594 L 1.738281 -13.960938 L 1.515625 -13.558594 L 1.476562 -13.132812 L 1.535156 -4.222656 L 1.453125 -3.839844 L 1.535156 -0.96875 Z M 1.496094 -0.585938 "/></g></g></g><g fill="#ffffff" fill-opacity="1"><g transform="translate(187.970598, 41.583619)"><g><path d="M 1.453125 -0.585938 L 1.71875 -0.203125 L 2.101562 0.0195312 L 6.667969 -0.0195312 L 7.03125 0.0390625 L 8.265625 -0.0195312 L 9.496094 0.0625 L 9.878906 0.0195312 L 10.304688 -0.183594 L 10.488281 -0.566406 L 10.527344 -0.949219 L 10.507812 -2.203125 L 10.546875 -2.585938 L 10.285156 -2.992188 L 9.679688 -3.191406 L 7.011719 -3.234375 L 6.628906 -3.171875 L 6.183594 -3.210938 L 5.738281 -3.171875 L 5.3125 -3.414062 L 5.132812 -4.039062 L 5.152344 -5.03125 L 5.335938 -5.457031 L 5.699219 -5.675781 L 6.484375 -5.675781 L 6.890625 -5.71875 L 7.960938 -5.65625 L 8.507812 -5.699219 L 8.929688 -5.65625 L 9.292969 -5.675781 L 9.699219 -5.898438 L 9.902344 -6.285156 L 9.941406 -7.878906 L 9.902344 -8.285156 L 9.71875 -8.667969 L 9.375 -8.890625 L 8.566406 -8.910156 L 8.164062 -8.871094 L 7.738281 -8.871094 L 7.273438 -8.910156 L 5.675781 -8.890625 L 5.335938 -9.113281 L 5.089844 -9.476562 L 5.050781 -10.101562 L 5.253906 -10.6875 L 5.878906 -10.871094 L 9.757812 -10.890625 L 10.183594 -11.113281 L 10.40625 -11.476562 L 10.363281 -12.304688 L 10.304688 -12.6875 L 10.324219 -13.132812 L 10.386719 -13.515625 L 10.183594 -13.921875 L 9.757812 -14.101562 L 8.144531 -14.125 L 7.777344 -14.082031 L 7.375 -14.144531 L 6.484375 -14.101562 L 6.082031 -14.144531 L 5.292969 -14.125 L 4.929688 -14.164062 L 2.28125 -14.101562 L 1.695312 -13.960938 L 1.496094 -13.515625 L 1.535156 -12.707031 L 1.453125 -12.121094 L 1.535156 -11.09375 L 1.496094 -10.667969 L 1.535156 -10.304688 L 1.535156 -6.6875 L 1.476562 -6.261719 L 1.535156 -5.476562 L 1.496094 -4.667969 L 1.554688 -4.242188 L 1.515625 -3.796875 L 1.535156 -3.414062 L 1.476562 -3.050781 L 1.515625 -2.585938 L 1.515625 -2.183594 L 1.554688 -1.394531 L 1.535156 -0.988281 Z M 1.453125 -0.585938 "/></g></g></g><g clip-path="url(#109c7fdf2b)"><path fill="#ffffff" d="M 37.679688 20.894531 L 46.847656 29.984375 L 49.6875 32.800781 C 50.703125 33.808594 50.703125 35.445312 49.6875 36.449219 L 46.847656 39.269531 L 37.601562 48.4375 C 36.945312 49.089844 36.109375 49.402344 35.257812 49.402344 C 34.402344 49.402344 33.546875 49.089844 32.910156 48.4375 C 31.617188 47.136719 31.699219 45.007812 32.988281 43.726562 L 42.132812 34.65625 L 42.132812 34.636719 L 32.910156 25.488281 C 32.253906 24.835938 31.9375 24.007812 31.9375 23.160156 C 31.9375 22.3125 32.273438 21.464844 32.929688 20.8125 C 34.242188 19.511719 36.390625 19.59375 37.679688 20.894531 Z M 51.597656 20.894531 L 60.761719 29.984375 L 63.605469 32.800781 C 64.617188 33.808594 64.617188 35.445312 63.605469 36.449219 L 60.761719 39.269531 L 51.515625 48.4375 C 50.863281 49.089844 50.027344 49.402344 49.171875 49.402344 C 48.316406 49.402344 47.460938 49.089844 46.824219 48.4375 C 45.535156 47.136719 45.613281 45.007812 46.90625 43.726562 L 56.050781 34.65625 L 56.050781 34.636719 L 46.824219 25.488281 C 46.191406 24.835938 45.851562 24.007812 45.851562 23.160156 C 45.851562 22.3125 46.191406 21.464844 46.847656 20.8125 C 48.15625 19.511719 50.304688 19.59375 51.597656 20.894531 Z M 51.597656 20.894531 " fill-opacity="1" fill-rule="nonzero"/></g></svg>